<?xml version="1.0" encoding="UTF-8"?>
<!DOCTYPE svg PUBLIC "-//W3C//DTD SVG 1.1//EN" "http://www.w3.org/Graphics/SVG/1.1/DTD/svg11.dtd">
<!-- Creator: CorelDRAW -->
<svg xmlns="http://www.w3.org/2000/svg" xml:space="preserve" width="224.614mm" height="224.614mm" version="1.1" style="shape-rendering:geometricPrecision; text-rendering:geometricPrecision; image-rendering:optimizeQuality; fill-rule:evenodd; clip-rule:evenodd"
viewBox="0 0 22461.44 22461.42"
 xmlns:xlink="http://www.w3.org/1999/xlink"
 xmlns:xodm="http://www.corel.com/coreldraw/odm/2003">
 <defs>
  <style type="text/css">
   <![CDATA[
    .str0 {stroke:#FEFEFE;stroke-width:1058.33;stroke-linecap:round;stroke-linejoin:round;stroke-miterlimit:22.9256}
    .fil2 {fill:none}
    .fil0 {fill:#FEFEFE}
    .fil3 {fill:#ED3237}
    .fil4 {fill:#5E2D2D}
    .fil1 {fill:#38761D}
   ]]>
  </style>
    <clipPath id="id0">
     <path d="M6035.09 12109.72c-134.41,-198.86 -249.02,-408.24 -273.03,-520.81 -28.8,-135.09 -92.36,-455.07 -54.15,-692.01 38.21,-236.94 156.49,-482.38 245.96,-599.88 76.7,-100.72 228.99,-312.36 272.37,-369.06 -43.11,-200.05 100.12,-246.51 19.85,-349.2 -41.59,-53.22 -124.98,-190.09 -108.49,-297.94 25.74,-168.14 209.05,-273.34 180.77,-424.14 -13.38,-71.34 31.49,-276.23 111.79,-346.9 80.3,-70.67 228.89,-169.76 292.73,-185.82 63.84,-16.05 234.95,4.52 300.88,2.98 26.59,-0.61 135.37,80.93 191.8,103.76 26.1,-15.26 34.67,-129.54 36.99,-192.5 3.51,-95.48 -6.3,-242.71 72.25,-296.5 78.56,-53.79 166.36,-48.13 291.95,-23.95 157.64,30.35 174.28,356.45 218.74,481.14 324.01,-85.81 636.66,-67.52 887.88,-110.71 105.34,-18.11 233.81,-133.48 284.06,-170.07 60.56,-36.53 91.79,-161.88 124.8,-170.15 91.55,-22.94 208.32,-80.62 305.94,-97.83 97.62,-17.23 271.4,-29.49 363.88,-80.64 81.63,-45.09 375.69,-163.13 547.78,-231.73 -36.9,-7.05 -69.83,-15.41 -96.04,-25.24 -183.54,-68.87 -426.21,-58.43 -531.45,-117.75 -57.21,-32.25 -51.66,-45.48 -110.86,-69.91 -59.2,-24.41 -64.87,-27.84 -168.23,-58.58 -167.01,-49.66 -12.59,-78.68 -201.04,-201.45 -21.34,-13.9 -29.26,-60.25 -58.22,-78.11 -22.19,-13.68 -80.26,-14.27 -107.39,-31.75 -106.8,-68.76 -144.36,-150.62 -210.11,-197.41 -25.35,-18.05 -90.18,-26.56 -130.93,-52.39 -146.41,-92.84 -306.77,-202.01 -315.76,-303.47 -8.98,-101.49 -127.97,-93.6 -222.58,-206.35 -94.62,-112.75 -11.62,-323.17 -57.85,-427.45 -15.42,-34.82 -65.57,-57.9 -87.48,-111.91 -43.75,-107.78 -92.57,-241.7 -114.77,-353.27 -33.33,-167.46 68.95,-703.59 68.95,-703.59 0,0 -60.43,-224.23 -70.89,-310.21 -10.48,-86.01 -55.78,-386.41 16.29,-1099.6 72.06,-713.21 334.58,-1308.34 505.23,-1619.82 170.64,-311.45 353.33,-298.95 378.8,-193.25 25.48,105.71 65.06,742.34 117.25,1104.76 52.19,362.41 289.35,857.32 507.89,1077.52 -155.88,-498.45 129.09,-979.75 263.88,-1273.19 134.79,-293.42 273.41,-75.69 273.41,-75.69 0,0 -63.11,-441.08 323.72,-829.76 421.49,-423.51 1443,-54.4 1760.69,375.54l166.23 -35.6c0,0 198.68,-386.64 439.42,-561.07 240.74,-174.42 410.92,34.03 518,97.49 107.08,63.45 199.83,-0.19 419.22,93.09 219.38,93.26 516.27,274.67 746.21,510 229.93,235.32 366.05,640.21 359.26,746.72 -6.78,106.51 -230.53,642.69 -230.53,642.69 518.17,271.03 815.66,710.59 700.89,1210.18 -55.02,239.51 -307.28,229.36 -307.28,229.36 35.32,128.1 61.93,246.72 93.84,373.96 35.02,116.64 79.59,273.72 103.8,351.89 62.54,-21.55 135.5,-12.45 235.67,83.93 157.01,151.09 198.18,364.24 225.23,458.12 27.05,93.87 187.65,307.3 297.85,422.84 110.21,115.55 166.26,148.08 193.44,245.21 154.09,87.15 629.53,338.83 1045.77,561.73 362.15,193.93 911.93,507.56 1100.91,562.76 188.98,55.21 434.99,243.77 434.99,243.77 0,0 254.9,39.88 401.28,212.53 146.38,172.65 174.79,485.47 205.14,723.77 30.35,238.3 83.94,546.56 59.9,620.8 -24.03,74.23 -127.6,141.04 -61.4,238.71 66.2,97.66 225.71,235.63 258.12,341.34 32.38,105.69 -74.96,221.44 -45.12,281.88 29.83,60.43 189.66,148.55 193.01,301.8 3.34,153.25 -2.24,253.66 41.22,322.72 43.47,69.07 293.88,425.74 373.05,622.59 72.21,179.57 381.06,918.01 510.87,1385.74 -159,22.41 -299.17,76.96 -421.82,170.73 -34.36,-75.95 -111.2,-128.65 -199.59,-128.65l-610.64 0c-119.82,0 -216.52,96.85 -215.68,216.02l1.2 168.9c-211.65,-306.09 -580.66,-483.28 -1004.31,-483.28 -387.12,0 -724.05,133.74 -998.05,403.63l-0.63 -89.25c-0.84,-119.17 -98.9,-216.02 -218.72,-216.02l-297.12 0 -3.74 -529.37c-0.44,-62.84 -27.53,-121.28 -75.38,-162.64 -47.67,-41.19 -109.98,-59.8 -172.31,-51.45l-670.84 89.89c-107.8,14.46 -187.47,105.81 -186.71,214.1l3.1 439.47 -99.31 0c-57.77,0 -110.16,22.52 -148.84,59.19 -239.1,-93 -490.18,-162.48 -747.72,-162.48 -363.87,0 -715.04,134.36 -894.67,453.46l-0.93 -132.28c-0.42,-59.17 -24.45,-114.45 -67.57,-155.52 -42.84,-40.8 -100.14,-62.52 -159.19,-60.35l-556.61 20.49c-85.77,-35.8 -174.23,-67.32 -264.3,-89.68 -440.29,-109.31 -902.47,29.94 -1209.19,357.39 -155.64,166.15 -256.49,356.72 -310.74,564.38l-588.77 566.59c-21.26,-100.95 -110.53,-173.15 -214.09,-173.15l-21.75 0c-62.76,0 -116.39,31.75 -146.1,86.52l-945.85 -671.06 -1171.89 -1987.09c-39.56,-67.09 -110.72,-107.7 -188.68,-107.7l-31.36 0c-80.46,0 -147.67,55.06 -162.98,133.51l-213.34 1093.33c-138.4,-1.35 -261.7,-21.95 -383.93,-56.44 39.13,-47.2 71.25,-101.46 94.78,-161.63 84.63,-216.46 36.48,-464.13 -131.16,-629.71 -166.78,-164.71 -414.85,-211.98 -631.1,-126.68 -108.67,42.87 -197.28,113.45 -259.72,202.17z"/>
    </clipPath>
    <clipPath id="id1">
     <path d="M10719.64 12082.48c392.21,-504.35 402.64,-530.53 801.43,-984.84 35.21,-77.33 152.82,-298.21 164.19,-353 17.22,-82.88 186.08,-772.5 196.62,-852.81 10.55,-80.29 51.58,-325.29 54.56,-392.81 6.09,-137.41 35.28,-140 -90.05,-224.2 -47.78,-32.09 -85.99,-62.38 -168.33,-57.94 -82.35,4.44 -140.56,62.94 -149.56,101.69 -9.01,38.74 -213.85,278.88 -269.84,372.99 -56,94.12 -286.15,510.93 -423.95,825.95 -108.65,248.34 -249.05,521.45 -300.04,630.07 17.2,353.17 88.39,589.47 184.97,934.9zm769.06 -3643.81c55.11,-47.63 105.95,-57.83 187.98,-80.45 -26.02,-103.82 -101.28,-161.22 -90.59,-276.05 -88.05,86.61 -90.57,125.19 -185.58,268.64l88.19 87.86zm1.68 135.41c10.7,-105.94 326.72,-157.94 438.03,-136.33 130.78,25.4 266.01,87.86 353.91,153.49 87.9,65.64 156.97,121.06 158.69,159.36 1.71,38.3 -66.68,95.72 -106.63,121.7 -39.95,25.99 -220.84,259.55 -251.42,308.74 -30.59,49.19 -47.1,83.64 -58.77,73.8 -11.67,-9.85 -90.97,-100.86 -196.85,-126.68 -105.89,-25.82 -210.44,-44.28 -251.5,-17.22 -167.15,110.16 -86.56,73.68 -66.14,-56.57 6.16,-39.35 -29.55,-409.93 -19.32,-480.29zm713.84 -136.64c166.43,70.29 238.92,124.99 323.33,261.27l188.45 -95.93c-97.76,-129.3 -175.71,-232.1 -246.49,-326.57l-265.29 161.23z"/>
    </clipPath>
 </defs>
 <g id="Layer_x0020_1">
  <metadata id="CorelCorpID_0Corel-Layer"/>
  <rect class="fil0" x="-0.01" y="-0.01" width="22461.44" height="22461.42"/>
  <g id="_1277285757344">
   <path class="fil0" d="M6035.09 12109.72c-134.41,-198.86 -249.02,-408.24 -273.03,-520.81 -28.8,-135.09 -92.36,-455.07 -54.15,-692.01 38.21,-236.94 156.49,-482.38 245.96,-599.88 76.7,-100.72 228.99,-312.36 272.37,-369.06 -43.11,-200.05 100.12,-246.51 19.85,-349.2 -41.59,-53.22 -124.98,-190.09 -108.49,-297.94 25.74,-168.14 209.05,-273.34 180.77,-424.14 -13.38,-71.34 31.49,-276.23 111.79,-346.9 80.3,-70.67 228.89,-169.76 292.73,-185.82 63.84,-16.05 234.95,4.52 300.88,2.98 26.59,-0.61 135.37,80.93 191.8,103.76 26.1,-15.26 34.67,-129.54 36.99,-192.5 3.51,-95.48 -6.3,-242.71 72.25,-296.5 78.56,-53.79 166.36,-48.13 291.95,-23.95 157.64,30.35 174.28,356.45 218.74,481.14 324.01,-85.81 636.66,-67.52 887.88,-110.71 105.34,-18.11 233.81,-133.48 284.06,-170.07 60.56,-36.53 91.79,-161.88 124.8,-170.15 91.55,-22.94 208.32,-80.62 305.94,-97.83 97.62,-17.23 271.4,-29.49 363.88,-80.64 81.63,-45.09 375.69,-163.13 547.78,-231.73 -36.9,-7.05 -69.83,-15.41 -96.04,-25.24 -183.54,-68.87 -426.21,-58.43 -531.45,-117.75 -57.21,-32.25 -51.66,-45.48 -110.86,-69.91 -59.2,-24.41 -64.87,-27.84 -168.23,-58.58 -167.01,-49.66 -12.59,-78.68 -201.04,-201.45 -21.34,-13.9 -29.26,-60.25 -58.22,-78.11 -22.19,-13.68 -80.26,-14.27 -107.39,-31.75 -106.8,-68.76 -144.36,-150.62 -210.11,-197.41 -25.35,-18.05 -90.18,-26.56 -130.93,-52.39 -146.41,-92.84 -306.77,-202.01 -315.76,-303.47 -8.98,-101.49 -127.97,-93.6 -222.58,-206.35 -94.62,-112.75 -11.62,-323.17 -57.85,-427.45 -15.42,-34.82 -65.57,-57.9 -87.48,-111.91 -43.75,-107.78 -92.57,-241.7 -114.77,-353.27 -33.33,-167.46 68.95,-703.59 68.95,-703.59 0,0 -60.43,-224.23 -70.89,-310.21 -10.48,-86.01 -55.78,-386.41 16.29,-1099.6 72.06,-713.21 334.58,-1308.34 505.23,-1619.82 170.64,-311.45 353.33,-298.95 378.8,-193.25 25.48,105.71 65.06,742.34 117.25,1104.76 52.19,362.41 289.35,857.32 507.89,1077.52 -155.88,-498.45 129.09,-979.75 263.88,-1273.19 134.79,-293.42 273.41,-75.69 273.41,-75.69 0,0 -63.11,-441.08 323.72,-829.76 421.49,-423.51 1443,-54.4 1760.69,375.54l166.23 -35.6c0,0 198.68,-386.64 439.42,-561.07 240.74,-174.42 410.92,34.03 518,97.49 107.08,63.45 199.83,-0.19 419.22,93.09 219.38,93.26 516.27,274.67 746.21,510 229.93,235.32 366.05,640.21 359.26,746.72 -6.78,106.51 -230.53,642.69 -230.53,642.69 518.17,271.03 815.66,710.59 700.89,1210.18 -55.02,239.51 -307.28,229.36 -307.28,229.36 35.32,128.1 61.93,246.72 93.84,373.96 35.02,116.64 79.59,273.72 103.8,351.89 62.54,-21.55 135.5,-12.45 235.67,83.93 157.01,151.09 198.18,364.24 225.23,458.12 27.05,93.87 187.65,307.3 297.85,422.84 110.21,115.55 166.26,148.08 193.44,245.21 154.09,87.15 629.53,338.83 1045.77,561.73 362.15,193.93 911.93,507.56 1100.91,562.76 188.98,55.21 434.99,243.77 434.99,243.77 0,0 254.9,39.88 401.28,212.53 146.38,172.65 174.79,485.47 205.14,723.77 30.35,238.3 83.94,546.56 59.9,620.8 -24.03,74.23 -127.6,141.04 -61.4,238.71 66.2,97.66 225.71,235.63 258.12,341.34 32.38,105.69 -74.96,221.44 -45.12,281.88 29.83,60.43 189.66,148.55 193.01,301.8 3.34,153.25 -2.24,253.66 41.22,322.72 43.47,69.07 293.88,425.74 373.05,622.59 72.21,179.57 381.06,918.01 510.87,1385.74 -159,22.41 -299.17,76.96 -421.82,170.73 -34.36,-75.95 -111.2,-128.65 -199.59,-128.65l-610.64 0c-119.82,0 -216.52,96.85 -215.68,216.02l1.2 168.9c-211.65,-306.09 -580.66,-483.28 -1004.31,-483.28 -387.12,0 -724.05,133.74 -998.05,403.63l-0.63 -89.25c-0.84,-119.17 -98.9,-216.02 -218.72,-216.02l-297.12 0 -3.74 -529.37c-0.44,-62.84 -27.53,-121.28 -75.38,-162.64 -47.67,-41.19 -109.98,-59.8 -172.31,-51.45l-670.84 89.89c-107.8,14.46 -187.47,105.81 -186.71,214.1l3.1 439.47 -99.31 0c-57.77,0 -110.16,22.52 -148.84,59.19 -239.1,-93 -490.18,-162.48 -747.72,-162.48 -363.87,0 -715.04,134.36 -894.67,453.46l-0.93 -132.28c-0.42,-59.17 -24.45,-114.45 -67.57,-155.52 -42.84,-40.8 -100.14,-62.52 -159.19,-60.35l-556.61 20.49c-85.77,-35.8 -174.23,-67.32 -264.3,-89.68 -440.29,-109.31 -902.47,29.94 -1209.19,357.39 -155.64,166.15 -256.49,356.72 -310.74,564.38l-588.77 566.59c-21.26,-100.95 -110.53,-173.15 -214.09,-173.15l-21.75 0c-62.76,0 -116.39,31.75 -146.1,86.52l-945.85 -671.06 -1171.89 -1987.09c-39.56,-67.09 -110.72,-107.7 -188.68,-107.7l-31.36 0c-80.46,0 -147.67,55.06 -162.98,133.51l-213.34 1093.33c-138.4,-1.35 -261.7,-21.95 -383.93,-56.44 39.13,-47.2 71.25,-101.46 94.78,-161.63 84.63,-216.46 36.48,-464.13 -131.16,-629.71 -166.78,-164.71 -414.85,-211.98 -631.1,-126.68 -108.67,42.87 -197.28,113.45 -259.72,202.17z"/>
   <g style="clip-path:url(#id0)">
    <g>
     <path id="_1" class="fil1" d="M4990.86 15583.48c-130.86,-201.21 -241.75,-412.59 -263.75,-525.57 -26.4,-135.57 -84.27,-456.64 -41.86,-692.86 42.41,-236.23 165.02,-479.53 256.56,-595.42 78.48,-99.35 300.8,-355.32 345.18,-411.24 -20.32,-103.14 -473.55,-1382.26 -276.96,-2315.16 186.1,-883.15 1023.26,-1423.94 985.13,-1474.56 -40.63,-53.94 -121.59,-192.27 -103.19,-299.81 28.72,-167.66 266.89,-294.94 241.28,-446.21 -12.11,-71.58 -16.63,-250.29 64.91,-319.52 81.54,-69.24 232.22,-186.62 296.36,-201.55 64.11,-14.93 268.61,-21.14 334.56,-21.5 26.59,-0.14 -71.53,-220.64 -15.52,-196.82 26.37,-14.79 208.26,225.83 211.69,162.92 5.21,-95.4 -2,-242.78 77.5,-295.17 79.5,-52.4 241.36,-106.5 366.51,-80.1 157.08,33.15 266.9,-121.2 309.14,4.26l250.04 191.64 -1.75 4.82c92.61,-10.32 192.61,-17.3 297.79,-20.39 -125.53,-238.87 -567.19,-521 -528.6,-860.1 38.8,-340.81 429.67,-434.66 726.91,-351.13 573.6,161.31 279.97,811.99 -161.82,668.89 -159.34,-51.6 -185.48,-235.95 -103.34,-281.42 82.15,-45.46 185.14,33.77 185.14,33.77 0,0 -66.48,-5.38 -110.88,46.36 -44.37,51.75 55.53,130.44 198.72,114.23 297.03,-33.63 189.53,-660.68 -322.12,-535.95 -720.85,175.74 72.31,820.58 150.13,1004.96l50.71 158.76c11.03,-0.1 22.12,-0.16 33.25,-0.18 118.06,-1.32 224.55,1.77 320.1,7.85 61.2,-35.45 113.9,-60.25 147.11,-67.94 91.95,-21.32 209.72,-76.91 307.62,-92.39 97.91,-15.48 201.6,-131.09 294.98,-180.59 82.42,-43.63 448.8,-50.02 622.08,-115.55 -36.77,-7.71 -69.54,-16.65 -95.57,-26.94 -182.29,-72.12 -425.11,-65.99 -529.28,-127.16 -56.63,-33.26 -50.85,-46.39 -109.6,-71.87 -58.76,-25.46 -64.37,-28.99 -167.17,-61.55 -166.1,-52.62 -11.19,-78.9 -197.43,-204.99 -21.09,-14.28 -28.19,-60.76 -56.83,-79.13 -21.94,-14.07 -79.99,-15.69 -106.81,-33.65 -105.56,-70.65 -141.66,-153.16 -206.57,-201.11 -25.03,-18.5 -89.69,-28.15 -129.98,-54.7 -144.74,-95.43 -303.14,-207.42 -310.33,-309.03 -7.17,-101.63 -126.28,-95.85 -218.88,-210.26 -92.6,-114.42 -5.88,-323.33 -50.26,-428.41 -14.8,-35.09 -64.53,-59.06 -85.48,-113.45 -41.83,-108.54 -88.26,-243.3 -108.48,-355.25 -18.39,-101.78 15.37,-337.92 44.86,-508.3l6947.55 123.29c21.15,89.95 39.85,177.54 61.23,269.68 32.94,117.24 74.72,275.09 97.54,353.67 62.91,-20.43 135.7,-10.04 234.14,88.1 154.3,153.85 191.69,367.7 217.07,462.04 25.38,94.34 182.16,310.59 290.3,428.06 108.14,117.49 163.6,151.01 189.06,248.61 152.51,89.87 623.41,349.94 1035.63,580.19 358.66,200.33 902.78,523.66 1090.76,582.21 187.97,58.55 430.59,251.45 430.59,251.45 0,0 254.15,44.39 397.45,219.61 143.29,175.22 166.15,488.5 192.26,727.3 26.12,238.8 74.23,547.96 48.88,621.77 -25.34,73.79 -130.08,138.75 -65.63,237.58 64.46,98.82 221.5,239.6 252.03,345.86 30.5,106.25 -78.88,220.08 -50.12,281.04 28.76,60.95 187,151.89 187.63,305.18 0.62,153.28 -6.74,253.58 35.48,323.4 42.24,69.83 286.28,430.88 361.95,629.11 69.01,180.82 364.71,924.62 486.2,1394.58 -159.37,19.59 -300.49,71.64 -424.78,163.22 -33.01,-76.54 -108.9,-130.6 -197.28,-132.17l-610.54 -10.83c-119.8,-2.13 -218.21,92.99 -219.48,212.16l-1.8 168.89c-206.18,-309.8 -1320.42,2994.48 -1744,2986.97 -387.06,-6.87 -726.31,120.87 -1005.05,385.86l0.95 -89.25c1.27,-119.17 -95.05,-217.74 -214.85,-219.87l-297.08 -5.27 5.66 -529.35c0.67,-62.84 -25.38,-121.75 -72.49,-163.91 -46.93,-42.07 -108.9,-61.79 -171.37,-54.54l-672.32 77.97c-108.04,12.54 -189.32,102.47 -190.48,210.75l-4.7 439.46 -99.3 -1.76c-57.76,-1.03 -110.54,20.56 -149.86,56.54 -237.42,-97.23 -487.22,-171.16 -744.72,-175.73 -363.82,-6.45 -717.31,121.66 -902.58,437.52l1.42 -132.28c0.63,-59.16 -22.42,-114.86 -64.8,-156.69 -42.11,-41.55 -99.02,-64.29 -158.09,-63.17l-556.89 10.61c-85.12,-37.31 -173.01,-70.4 -262.67,-94.35 -438.28,-117.11 -902.86,13.92 -1215.34,335.88 -158.56,163.36 -262.78,352.11 -320.7,558.78l-407.45 -2120.31c-19.46,-101.31 -107.44,-175.08 -210.98,-176.92l-21.75 -0.38c-62.75,-1.12 -116.93,29.68 -147.61,83.91l-1125.08 1988.62 -1136.45 -2007.57c-38.36,-67.78 -108.79,-109.65 -186.74,-111.03l-31.35 -0.56c-80.45,-1.42 -148.63,52.43 -165.33,130.6l-232.7 1089.37c-138.36,-3.8 -261.27,-26.59 -382.87,-63.24 39.96,-46.5 73.04,-100.18 97.63,-159.92 88.46,-214.93 44.71,-463.41 -119.96,-631.94 -163.84,-167.64 -411.03,-219.31 -628.76,-137.86 -109.41,40.94 -199.26,109.93 -263.26,197.53z"/>
     <path class="fil0" d="M6567.99 10617.27c0,0 310.99,306.06 439.33,360.35 128.34,54.29 567.67,-74.06 700.95,-143.16 133.28,-69.1 196.18,-235.21 196.18,-235.21l24.14 -351.45 -9.24 -186.52 323.13 194.57c0,0 247.08,144.26 621.78,141.66 374.7,-2.6 679.15,-122.3 892.52,-348.68 213.37,-226.38 385.25,-519.89 430.68,-699.08 45.43,-179.19 26.23,-717.2 30.29,-772.3 4.06,-55.1 -424.82,-201.99 -659.18,-237.56 -234.36,-35.57 -1137.85,-45.78 -1464.01,8.98 -326.16,54.76 -298.79,60.92 -298.79,60.92 0,0 31.16,-140.21 23.37,-196.69 -7.79,-56.48 -80.01,-229.21 -127.13,-249.99 -47.12,-20.78 -231.07,-52.19 -326.83,-22.85 -95.76,29.34 -174.54,196.15 -176.08,270.29 -1.54,74.14 7.2,191.51 7.2,191.51l-149.84 -43.25c0,0 -353.73,-18.54 -452.59,10.81 -98.86,29.35 -200.8,152.92 -242.51,200.81 -41.71,47.89 -42.13,216.36 -32.99,286.24 9.14,69.88 -48.56,172.69 -85.68,228 -37.12,55.31 -166.94,196.72 -134.12,305.27 32.82,108.55 148.95,196.91 138.85,257.5 -10.1,60.59 -42.84,240.47 0.32,324.92 43.16,84.45 131.36,230.82 148.25,277.73 16.89,46.91 13.13,165.14 63.8,228.94 50.67,63.8 118.2,138.24 118.2,138.24z"/>
    </g>
   </g>
   <path class="fil2" d="M6035.09 12109.72c-134.41,-198.86 -249.02,-408.24 -273.03,-520.81 -28.8,-135.09 -92.36,-455.07 -54.15,-692.01 38.21,-236.94 156.49,-482.38 245.96,-599.88 76.7,-100.72 228.99,-312.36 272.37,-369.06 -43.11,-200.05 100.12,-246.51 19.85,-349.2 -41.59,-53.22 -124.98,-190.09 -108.49,-297.94 25.74,-168.14 209.05,-273.34 180.77,-424.14 -13.38,-71.34 31.49,-276.23 111.79,-346.9 80.3,-70.67 228.89,-169.76 292.73,-185.82 63.84,-16.05 234.95,4.52 300.88,2.98 26.59,-0.61 135.37,80.93 191.8,103.76 26.1,-15.26 34.67,-129.54 36.99,-192.5 3.51,-95.48 -6.3,-242.71 72.25,-296.5 78.56,-53.79 166.36,-48.13 291.95,-23.95 157.64,30.35 174.28,356.45 218.74,481.14 324.01,-85.81 636.66,-67.52 887.88,-110.71 105.34,-18.11 233.81,-133.48 284.06,-170.07 60.56,-36.53 91.79,-161.88 124.8,-170.15 91.55,-22.94 208.32,-80.62 305.94,-97.83 97.62,-17.23 271.4,-29.49 363.88,-80.64 81.63,-45.09 375.69,-163.13 547.78,-231.73 -36.9,-7.05 -69.83,-15.41 -96.04,-25.24 -183.54,-68.87 -426.21,-58.43 -531.45,-117.75 -57.21,-32.25 -51.66,-45.48 -110.86,-69.91 -59.2,-24.41 -64.87,-27.84 -168.23,-58.58 -167.01,-49.66 -12.59,-78.68 -201.04,-201.45 -21.34,-13.9 -29.26,-60.25 -58.22,-78.11 -22.19,-13.68 -80.26,-14.27 -107.39,-31.75 -106.8,-68.76 -144.36,-150.62 -210.11,-197.41 -25.35,-18.05 -90.18,-26.56 -130.93,-52.39 -146.41,-92.84 -306.77,-202.01 -315.76,-303.47 -8.98,-101.49 -127.97,-93.6 -222.58,-206.35 -94.62,-112.75 -11.62,-323.17 -57.85,-427.45 -15.42,-34.82 -65.57,-57.9 -87.48,-111.91 -43.75,-107.78 -92.57,-241.7 -114.77,-353.27 -33.33,-167.46 68.95,-703.59 68.95,-703.59 0,0 -60.43,-224.23 -70.89,-310.21 -10.48,-86.01 -55.78,-386.41 16.29,-1099.6 72.06,-713.21 334.58,-1308.34 505.23,-1619.82 170.64,-311.45 353.33,-298.95 378.8,-193.25 25.48,105.71 65.06,742.34 117.25,1104.76 52.19,362.41 289.35,857.32 507.89,1077.52 -155.88,-498.45 129.09,-979.75 263.88,-1273.19 134.79,-293.42 273.41,-75.69 273.41,-75.69 0,0 -63.11,-441.08 323.72,-829.76 421.49,-423.51 1443,-54.4 1760.69,375.54l166.23 -35.6c0,0 198.68,-386.64 439.42,-561.07 240.74,-174.42 410.92,34.03 518,97.49 107.08,63.45 199.83,-0.19 419.22,93.09 219.38,93.26 516.27,274.67 746.21,510 229.93,235.32 366.05,640.21 359.26,746.72 -6.78,106.51 -230.53,642.69 -230.53,642.69 518.17,271.03 815.66,710.59 700.89,1210.18 -55.02,239.51 -307.28,229.36 -307.28,229.36 35.32,128.1 61.93,246.72 93.84,373.96 35.02,116.64 79.59,273.72 103.8,351.89 62.54,-21.55 135.5,-12.45 235.67,83.93 157.01,151.09 198.18,364.24 225.23,458.12 27.05,93.87 187.65,307.3 297.85,422.84 110.21,115.55 166.26,148.08 193.44,245.21 154.09,87.15 629.53,338.83 1045.77,561.73 362.15,193.93 911.93,507.56 1100.91,562.76 188.98,55.21 434.99,243.77 434.99,243.77 0,0 254.9,39.88 401.28,212.53 146.38,172.65 174.79,485.47 205.14,723.77 30.35,238.3 83.94,546.56 59.9,620.8 -24.03,74.23 -127.6,141.04 -61.4,238.71 66.2,97.66 225.71,235.63 258.12,341.34 32.38,105.69 -74.96,221.44 -45.12,281.88 29.83,60.43 189.66,148.55 193.01,301.8 3.34,153.25 -2.24,253.66 41.22,322.72 43.47,69.07 293.88,425.74 373.05,622.59 72.21,179.57 381.06,918.01 510.87,1385.74 -159,22.41 -299.17,76.96 -421.82,170.73 -34.36,-75.95 -111.2,-128.65 -199.59,-128.65l-610.64 0c-119.82,0 -216.52,96.85 -215.68,216.02l1.2 168.9c-211.65,-306.09 -580.66,-483.28 -1004.31,-483.28 -387.12,0 -724.05,133.74 -998.05,403.63l-0.63 -89.25c-0.84,-119.17 -98.9,-216.02 -218.72,-216.02l-297.12 0 -3.74 -529.37c-0.44,-62.84 -27.53,-121.28 -75.38,-162.64 -47.67,-41.19 -109.98,-59.8 -172.31,-51.45l-670.84 89.89c-107.8,14.46 -187.47,105.81 -186.71,214.1l3.1 439.47 -99.31 0c-57.77,0 -110.16,22.52 -148.84,59.19 -239.1,-93 -490.18,-162.48 -747.72,-162.48 -363.87,0 -715.04,134.36 -894.67,453.46l-0.93 -132.28c-0.42,-59.17 -24.45,-114.45 -67.57,-155.52 -42.84,-40.8 -100.14,-62.52 -159.19,-60.35l-556.61 20.49c-85.77,-35.8 -174.23,-67.32 -264.3,-89.68 -440.29,-109.31 -902.47,29.94 -1209.19,357.39 -155.64,166.15 -256.49,356.72 -310.74,564.38l-588.77 566.59c-21.26,-100.95 -110.53,-173.15 -214.09,-173.15l-21.75 0c-62.76,0 -116.39,31.75 -146.1,86.52l-945.85 -671.06 -1171.89 -1987.09c-39.56,-67.09 -110.72,-107.7 -188.68,-107.7l-31.36 0c-80.46,0 -147.67,55.06 -162.98,133.51l-213.34 1093.33c-138.4,-1.35 -261.7,-21.95 -383.93,-56.44 39.13,-47.2 71.25,-101.46 94.78,-161.63 84.63,-216.46 36.48,-464.13 -131.16,-629.71 -166.78,-164.71 -414.85,-211.98 -631.1,-126.68 -108.67,42.87 -197.28,113.45 -259.72,202.17z"/>
   <path class="fil0" d="M14887.45 5143.99c-33.87,-112.49 -26.72,-125.98 -44.88,-211l-86.67 -278.86c-716.81,-238.6 -820.59,-999.27 -1457.96,-999.27 481.23,171.49 555.38,533.55 577.96,710.7 14.75,115.72 -236.95,-445.74 -489.37,-537.58 -130.67,-47.53 -135.91,80.72 -135.91,80.72 -136.61,-100.37 -159.23,-194.5 -77.84,-384.92 99.09,-231.83 -170.96,-399.76 -259.81,-755.29 -38.95,-155.84 -0.68,-333.01 -75.85,-265.75 -75.18,67.25 -253.8,435.42 -263.59,654.99 -9.79,219.55 156.42,417.41 208.15,498.73 51.72,81.33 -16.25,111.14 -79.22,46.08 -62.98,-65.05 -137.6,-168.05 -254.39,-211.42 -116.79,-43.37 -162.31,-51.5 -315.65,-40.66 -153.35,10.84 -578.34,-4.16 -800.82,-55.43 -222.48,-51.27 -499.22,-174.31 -499.22,-174.31 0,0 62.33,148.89 27.74,243.75 -34.6,94.84 -34.92,122.6 -83.53,203.46 69.52,-66.74 95.49,-100.96 111.13,-156.05 15.63,-55.08 22.76,-157.98 39.03,-162.76 17.55,-5.17 41.03,109.6 -1.41,225.85 -96.76,265.02 -282.96,384.73 -565.5,419.73 -198.27,24.59 -398.57,-38.04 -601.64,-119.02 -64.46,-25.71 -13.84,60.29 11.28,151.67 25.12,91.39 115,385.66 -10.08,581.5 -125.08,195.84 -95.31,101.91 -54.55,2.99 40.76,-98.91 46.28,-203.8 7.77,-248.33 -20.44,41.54 -80.08,193.93 -158.36,265.12 -78.28,71.21 -278.09,258.28 -620.09,274.46 -341.99,16.18 -588.93,-118.69 -651.55,-175.34 -62.61,-56.65 -88.38,-102.5 -132.82,-79.77 0,0 -91.74,332.6 -97.59,488.93 -4.8,128.28 45.05,307.93 100.31,454.63 12.07,32.06 67.97,46.07 82.32,73.03 77.92,146.3 -4.85,391.05 18.54,442.93 23.37,51.88 44.18,71.06 77.65,71.06 33.47,0 129.96,-78.92 178.02,-180.25 47.27,-99.64 66.04,-124.43 83.99,-175.4 17.95,-50.97 69.86,5.18 20.59,158.07 -50.83,157.76 -101.08,165.89 -146.26,212.3 -50.91,52.32 -76.91,61.78 -29.82,91.09 41.99,26.13 65.05,2.95 66.96,68.98 1.92,66.03 152.55,216.5 243.55,254.79 91.01,38.29 145.27,17.32 205.06,87.2 62.5,73.06 71.02,107.83 140.08,148.94 31.53,18.78 97.58,-0.58 175.15,47.99 33.03,20.68 39.76,89.02 62.03,99.54 43.62,20.6 67.64,16.97 87.56,58.82 30.1,63.22 69.47,80.14 103.8,58.21 34.33,-21.94 161.76,-203.59 308.26,-291.32 400.98,-240.14 771.55,-180.94 835.87,-202.89 15.14,-5.16 90.4,-22.13 96.85,-57.31 17.58,-96.05 -203.7,-50.23 -143.14,-132.36 38.48,-52.19 195.01,10.75 284.37,121.41 88.01,109.03 98.56,248.59 44.25,262.62 -65.96,17.04 -6.96,-55.07 -73.93,-106.7 -75.79,-58.43 -80.06,-29.59 -242.45,65.04 -64.12,37.38 -97.54,111.88 -167.87,112.92 -146.74,2.15 -109.28,68.6 -218.04,187.12 -108.76,118.53 -213.37,193.93 -347.24,210.2 -133.86,16.26 324.33,107.02 453.65,137.24 129.31,30.21 373.13,60.42 482.5,25.57 109.37,-34.87 250,-125.51 339.31,-239.38 89.31,-113.89 107.34,-82.18 91.68,14.42 -15.67,96.6 -194.19,174.79 -220.68,214.31 -53.92,80.36 1574.24,-377.7 1780.06,-1404.85 27.26,-136.11 67.74,-217.64 77.19,-63.58 9.46,154.06 -18.23,376.09 -145.08,571.17 -56.1,86.28 -263.57,296.41 -196.49,260.01 42.83,-23.24 299.27,-177.26 427.64,-214.71 128.38,-37.45 395.74,-325.69 519.26,-561.11 123.52,-235.41 294.1,-675.7 246.73,-894.16 -47.37,-218.44 51.1,-131.55 70.92,91.87 19.81,223.41 -91.16,563.68 -149.86,723.56 -123.16,335.42 -313.73,586.38 -634.65,756.01 -140.81,74.45 -283.76,134.59 -406.78,190.42 -123.02,55.83 -180.85,110.12 -308.3,153.78 -218.61,74.88 -263.44,234.38 -730.87,368.37 155.17,320.8 188.92,307.55 446.39,540.34 58.86,-35.8 72.47,-41 103.8,-49.02 66.02,-16.92 110.78,-53.18 290.72,-157.84 179.95,-104.67 1184.49,-706.36 1380.86,-832.82 103.36,-66.56 278.04,-207.69 450.61,-353.87 156.41,-455.75 178.38,-1067.68 178.38,-1067.68 36.61,23.88 76.59,137.34 68.32,348.84 -7.77,198.75 -48.44,461.37 -65.16,562.79 189.71,-165.32 538.92,-389.58 573.77,-641.48 -30.97,-118.95 -79.45,-409.18 -135.14,-611.78z"/>
   <path class="fil0" d="M11667.14 4550.35c79.44,65.21 12.63,181.83 -90.32,155.99 -36.91,-9.27 -67.83,-48.62 -77.43,-79.9 -1.59,-18.33 62.66,-83.25 167.75,-76.09z"/>
   <path class="fil0" d="M9694.28 7087.08c74.43,-70.86 212.51,-192.48 324.15,-234.56 161.27,-60.76 183.02,-107.84 403.42,-123.89 113.71,-8.27 84.41,14.65 2.36,52.87 -59.55,27.74 -158.53,53.67 -194.63,129.48 -28.95,60.77 -149.19,198.64 -263.99,237.36 -76.71,25.88 -208.91,45.83 -279.54,34.62 -94.26,-14.98 -25.45,-63.79 8.23,-95.88z"/>
   <path class="fil0" d="M8204.02 4548.79c255.22,187.33 507.64,311.43 851.36,223.81 350.98,-89.45 618.35,-295.82 615.65,-671.7 -0.84,-116.54 -190.74,-386.88 -263.57,-458.74 -72.82,-71.86 -324.79,-306.89 -470.49,-719.45 -145.69,-412.58 -170.21,-943.14 -170.95,-1046.12 -0.74,-102.97 -11.48,-343.82 -53.37,-374.11 -41.89,-30.28 -133.57,95.69 -213.75,260.39 -80.18,164.69 -196.72,532.43 -256.34,747.89 -55.87,201.97 -291.18,994.92 -146.17,1817.66 22.33,126.67 46.26,175.33 107.63,220.37z"/>
   <path class="fil0" d="M9585.71 3635.5c0,0 -59.87,-263.84 -31.33,-537.28 28.55,-273.45 232.34,-666.37 292.41,-745.92 60.06,-79.55 148.74,37.73 267.4,200.45 118.65,162.71 382.38,470.05 512.54,650.86 130.16,180.79 140.13,350.12 63.32,448.72 -76.82,98.62 -188.52,207.28 -392.6,235 -246.09,33.41 -708.91,-144.95 -711.74,-251.83z"/>
   <path class="fil0" d="M11219.24 7511.16c90.29,-26.09 189.94,-46.86 268.37,-71.71 122.81,257.63 181.08,305.32 438.58,578.18 -18.36,12.15 -14.51,1.14 -27.41,10.55 -247.01,-168.83 -261.84,-242.97 -529.21,177.41 -122.35,192.36 -299.98,459.14 -319.37,501.98 -19.4,42.85 -7.53,-51.52 3.79,-119.94 11.33,-68.4 110.57,-657.55 127.93,-819.49l37.32 -256.98zm692.42 827.26c80.33,2.27 100.69,23.75 189.18,56.75l314.11 -191.83c-98.89,-132.68 -77.15,-86.55 -131.89,-44.19 -44.77,34.63 -197.67,23.8 -242.46,33.32 -71.54,15.19 -110.06,84.34 -128.94,145.95zm-150.82 0.8c16.47,-2.46 13.33,-2.84 30.59,-3.62 7.71,-72.61 -7.16,-248.32 14.55,-270.4 -53.13,-33.73 -72.13,-50.67 -133.89,-27.2 24.4,176.75 19.85,155.02 88.75,301.22zm818.73 427.4c20.54,55.16 -56.14,71.59 -101.74,127.3 -33.34,40.75 -129.41,119.27 -198.78,231.41 -38.55,62.33 -91.12,219.79 -215,237.28 -22.08,134.19 -20.42,398.68 -38.49,464.59 -18.04,65.85 -167.28,734.05 -212.73,937.94 424.98,-482.22 962.82,-1085.74 962.82,-1085.74l1377.85 -1563.62c46.04,-80.77 93.37,-163.11 141.27,-245.93 -81.57,91.92 -181.79,203.7 -224.13,246.19 -76.94,77.22 -906.75,912.97 -956.63,946.63 -49.88,33.64 -117.68,0.3 -147.7,-45.72 -12.56,-19.26 -62.61,-165.86 -185.78,-328.79l-200.96 78.46zm-1130.73 467.68c-105.44,-71.68 -26.4,-158.43 -27.93,-176.03 -1.54,-17.63 1.69,-363.59 -4.85,-409.56 -10,-70.38 -69.65,-75.09 -20.14,-147.92l-53.56 -65.9c-113.43,172.21 -255.42,342.4 -281.95,396.71 -43.31,88.64 -162.81,62 -136.03,-54.18 62.11,-269.5 84.9,-428.12 131.92,-705.2 -32.96,59.86 -30.89,58.44 -66.01,153.2 -49.93,134.69 -329.14,1478.79 -356.11,1619.35 -23.52,122.61 -92.2,748.79 -103.86,1041.76 50.41,-113.83 196.91,-442.07 248.83,-529.81 63.14,-106.69 228.31,-466.36 314.57,-589.27 86.26,-122.91 335.03,-492.42 335.03,-492.42l20.09 -40.73zm2990.51 -1613.16c151.19,-258.8 300.81,-511.49 426.7,-724.22 339.12,-573.04 417.23,-911.55 411.46,-1046.61 -5.9,-138.04 -35.01,-309.39 -133.28,-332.26 -24.7,172.99 46.94,375.96 -128.36,576.62 -153.57,175.78 -685.38,637.02 -766.17,697.29 -80.78,60.27 -1023.89,647.46 -1145.99,730.53 -122.1,83.07 -717.68,402.27 -750.77,419.43 -33.1,17.17 -120.62,70.66 -175.59,80.5 -54.97,9.85 -260.43,69.71 -281.22,94.87 -20.78,25.17 -25.42,111.57 -25.42,111.57 0,0 56.06,-108.03 137.07,-115.31 81.01,-7.3 236.45,-12.59 259.98,-37.39 23.53,-24.82 41.05,-79.56 76.33,-65.68 35.28,13.86 256.53,267.9 379.35,415.39 122.82,147.49 320.03,504.63 352.79,511.73 32.76,7.1 116.98,-135.46 149.48,-163.82 32.51,-28.36 691.15,-633.55 765.59,-698.09 59.91,-51.96 340.76,-342.98 448.05,-454.55z"/>
   <path class="fil0" d="M10719.64 12082.48c392.21,-504.35 402.64,-530.53 801.43,-984.84 35.21,-77.33 152.82,-298.21 164.19,-353 17.22,-82.88 186.08,-772.5 196.62,-852.81 10.55,-80.29 51.58,-325.29 54.56,-392.81 6.09,-137.41 35.28,-140 -90.05,-224.2 -47.78,-32.09 -85.99,-62.38 -168.33,-57.94 -82.35,4.44 -140.56,62.94 -149.56,101.69 -9.01,38.74 -213.85,278.88 -269.84,372.99 -56,94.12 -286.15,510.93 -423.95,825.95 -108.65,248.34 -249.05,521.45 -300.04,630.07 17.2,353.17 88.39,589.47 184.97,934.9zm769.06 -3643.81c55.11,-47.63 105.95,-57.83 187.98,-80.45 -26.02,-103.82 -101.28,-161.22 -90.59,-276.05 -88.05,86.61 -90.57,125.19 -185.58,268.64l88.19 87.86zm1.68 135.41c10.7,-105.94 326.72,-157.94 438.03,-136.33 130.78,25.4 266.01,87.86 353.91,153.49 87.9,65.64 156.97,121.06 158.69,159.36 1.71,38.3 -66.68,95.72 -106.63,121.7 -39.95,25.99 -220.84,259.55 -251.42,308.74 -30.59,49.19 -47.1,83.64 -58.77,73.8 -11.67,-9.85 -90.97,-100.86 -196.85,-126.68 -105.89,-25.82 -210.44,-44.28 -251.5,-17.22 -167.15,110.16 -86.56,73.68 -66.14,-56.57 6.16,-39.35 -29.55,-409.93 -19.32,-480.29zm713.84 -136.64c166.43,70.29 238.92,124.99 323.33,261.27l188.45 -95.93c-97.76,-129.3 -175.71,-232.1 -246.49,-326.57l-265.29 161.23z"/>
   <g style="clip-path:url(#id1)">
    <g>
     <path id="_1_0" class="fil3" d="M10642.54 12034.62c386.38,-501.37 424.17,-520.73 817.71,-972 34.32,-77.07 149.38,-297.06 160.12,-351.77 16.27,-82.75 177.18,-771.15 186.79,-851.38 9.63,-80.22 47.83,-324.93 50.03,-392.44 4.51,-137.38 33.67,-139.74 -92.63,-224.92 -48.14,-32.47 -86.7,-63.06 -168.99,-59.26 -82.29,3.81 -139.83,61.86 -148.38,100.55 -8.57,38.67 -210.63,277.25 -265.54,370.94 -54.91,93.69 -280.25,508.77 -414.42,822.76 -105.79,247.52 -243.04,519.58 -292.77,627.82 21.26,353.34 67.51,583.48 168.08,929.7zm801.95 -3556.78c54.56,-47.21 170.04,-79.31 251.79,-101.3 -27.2,-104.03 -120.4,-311.4 -111.03,-426.16 -87.05,85.93 -183.84,221.42 -277.2,364.15l136.44 163.31zm-44 60.68c9.48,-105.87 324.89,-155.42 436.45,-132.95 131.07,26.42 267.01,89.94 355.67,156.26 88.65,66.33 158.36,122.29 160.52,160.61 2.15,38.31 -65.58,95.21 -105.23,120.88 -39.65,25.69 -217.84,257.87 -247.85,306.83 -30.03,48.96 -46.15,83.28 -57.92,73.35 -11.78,-9.93 -104.91,-54.58 -211.07,-81.22 -106.18,-26.63 -241.31,33.18 -282.05,59.92 -165.86,108.86 -42.57,-53.07 -23.66,-183.18 5.7,-39.3 -34.28,-410.21 -24.86,-480.5zm712.25 -131.12c167.23,71.59 240.35,126.86 326.33,263.81l327.43 -169.15c-99.26,-130.08 -199.55,-232.22 -271.42,-327.25l-382.34 232.59z"/>
    </g>
   </g>
   <path class="fil2" d="M10719.64 12082.48c392.21,-504.35 402.64,-530.53 801.43,-984.84 35.21,-77.33 152.82,-298.21 164.19,-353 17.22,-82.88 186.08,-772.5 196.62,-852.81 10.55,-80.29 51.58,-325.29 54.56,-392.81 6.09,-137.41 35.28,-140 -90.05,-224.2 -47.78,-32.09 -85.99,-62.38 -168.33,-57.94 -82.35,4.44 -140.56,62.94 -149.56,101.69 -9.01,38.74 -213.85,278.88 -269.84,372.99 -56,94.12 -286.15,510.93 -423.95,825.95 -108.65,248.34 -249.05,521.45 -300.04,630.07 17.2,353.17 88.39,589.47 184.97,934.9zm769.06 -3643.81c55.11,-47.63 105.95,-57.83 187.98,-80.45 -26.02,-103.82 -101.28,-161.22 -90.59,-276.05 -88.05,86.61 -90.57,125.19 -185.58,268.64l88.19 87.86zm1.68 135.41c10.7,-105.94 326.72,-157.94 438.03,-136.33 130.78,25.4 266.01,87.86 353.91,153.49 87.9,65.64 156.97,121.06 158.69,159.36 1.71,38.3 -66.68,95.72 -106.63,121.7 -39.95,25.99 -220.84,259.55 -251.42,308.74 -30.59,49.19 -47.1,83.64 -58.77,73.8 -11.67,-9.85 -90.97,-100.86 -196.85,-126.68 -105.89,-25.82 -210.44,-44.28 -251.5,-17.22 -167.15,110.16 -86.56,73.68 -66.14,-56.57 6.16,-39.35 -29.55,-409.93 -19.32,-480.29zm713.84 -136.64c166.43,70.29 238.92,124.99 323.33,261.27l188.45 -95.93c-97.76,-129.3 -175.71,-232.1 -246.49,-326.57l-265.29 161.23z"/>
   <path class="fil0" d="M12608.84 13050.79c0,0 1364.29,-2033.93 1714.07,-2506.61 349.78,-472.68 1057.02,-1366.24 1057.02,-1483.58 0,-117.34 -351.99,-277.33 -490.66,-469.33 -138.67,-192 -304,-549.33 -304,-549.33 0,0 385.32,491.18 619.22,612.16 233.9,120.98 500.07,395.21 500.07,395.21l-2956.37 4078.01 -139.35 -76.53z"/>
   <path class="fil4" d="M11743.63 19490.05c107.25,-17.28 292.64,-115.65 339.63,-225.68 109.94,-257.43 -120.99,-423.38 -449.07,-338.95 -380.04,97.79 -684.28,436.05 -824.06,791.87 -77.55,197.39 -131.34,470.89 -21.98,667.14 187.72,336.87 762.57,179.2 998.77,-225.53 36.09,-61.84 112.37,-232.41 83.73,-302.76l-158.28 164.94c-90.5,85.78 -207.34,177.72 -329.71,209.21 -377.15,97.06 -326.37,-514.77 -29.06,-868.85 224.37,-267.21 434.83,-252.83 390.03,128.61zm1372.51 552.28c-79.94,-246.03 285.25,-821.45 239.01,-1016.53 -18.05,-76.15 -245.49,-43.54 -300.73,-32.16 -6.14,66.47 -26.7,133.3 -44.83,196.92l-22.71 -48.23c-47.95,-101.82 -152.38,-90.53 -245.96,-66.45 -491.59,126.5 -842.85,853.81 -670.24,1131.15 58.72,94.35 163.07,99.06 261.54,70.07 192.99,-56.81 351.88,-317.68 456.91,-482.9 -23.61,112.28 -96.25,332.58 65.39,342.12 84.07,4.97 189.25,-48.13 261.62,-93.99zm-343.76 -792.76c130.7,-34.63 205.68,19.77 148.07,155.03 -60.09,130.2 -262.46,528.15 -409.19,565.9 -145.18,37.36 -128.85,-176.38 -103.07,-275.37 43.13,-165.67 189.39,-399.25 364.19,-445.56zm1647.41 -768.49c35.53,-0.65 103.07,-28.09 125.18,-40.17 74.52,-40.71 126.18,-104.17 139.72,-189.39 31.86,-200.57 -196.33,-172.14 -323.04,-139.53 -359.81,92.59 -513.39,389.91 -615.59,716.69l-13.68 40.17c-104.38,26.9 -187.64,47.35 -233.88,155.61 -6.73,15.75 -22.84,68.63 -16.44,93.88l186.7 -55.7c-54.69,151.33 -254.9,643.7 -256.65,772.34 -3.03,223.11 251.27,109.12 364.71,37.28 -51.9,-170.04 168.86,-689.19 232.91,-870.72l3.69 -10.46 205.11 -61.06c85.45,-31.44 130.92,-145.88 105.67,-206.61l-246.24 78.39c38.72,-128.71 133.83,-467.27 275.92,-503.82 75.95,-19.54 69.21,140.24 65.91,183.1zm806.21 692.21c-99.54,107.75 -209.8,186.44 -354.57,224.84 -96.16,25.51 -207.58,21.49 -244.95,-87.21l-7.34 -21.34c258.54,-55.29 624.91,-259.52 729.64,-504.66 100.36,-234.91 -37.25,-375.79 -308.74,-300.7 -631.54,174.67 -929.9,922.39 -712.28,1141.14 99.18,99.69 272.65,71.88 393.13,34.87 163.8,-42.16 313.35,-154.53 414.95,-287.47 24.19,-31.65 106.63,-154.7 90.16,-199.47zm-268.63 -486c69.12,-18.51 123.59,2.64 123.59,81.49 0,186.86 -303.81,307.84 -451.32,363.94 54.05,-152.9 155.97,-399.44 327.73,-445.43z"/>
   <ellipse class="fil0" cx="4463.64" cy="16359.56" rx="350.65" ry="393.03"/>
   <path class="fil0" d="M4708.64 16999.14c0,0 -430.88,-51.3 -533.48,-307.78 -102.6,-256.48 -174.41,-902.82 143.63,-954.12 318.04,-51.3 913.07,400.12 1046.45,687.38 133.38,287.26 153.89,851.52 -143.63,933.6 -297.52,82.08 -461.67,-10.26 -512.97,-359.08z"/>
   <path class="fil4" d="M6037.88 12110.43c-64.55,-95.35 -124.59,-193.19 -172.31,-281.7l-110 0c-52.08,-96.57 -89.48,-182.02 -102.05,-240.95 -28.82,-135.07 -92.42,-455.02 -54.24,-691.93 38.18,-236.92 156.42,-482.34 245.88,-599.82 76.68,-100.72 294.41,-360.57 337.78,-417.27 -43.14,-200.02 34.64,-198.23 -45.65,-300.92 -41.6,-53.22 -125.01,-190.08 -108.52,-297.91 25.71,-168.13 261.58,-299.6 233.26,-450.38 -13.39,-71.34 -21.1,-249.92 59.19,-320.59 80.29,-70.67 228.85,-190.69 292.7,-206.75 63.86,-16.06 268.2,-25.9 334.14,-27.44 26.58,-0.6 134.45,41.78 190.88,64.61 26.1,-15.26 2.33,-39.01 4.65,-101.97 3.5,-95.47 -6.35,-242.68 72.21,-296.47 78.55,-53.79 239.41,-110.77 365.02,-86.58 176.85,34.06 240.85,173.99 261.61,327.35 9.15,71.3 21.84,116.81 24.84,191.12l0.01 0c-70.6,19.57 -133.22,41.55 -186.52,65.58 -4.55,-2.03 -9.04,-4.1 -13.44,-6.19l-0.98 12.86c-72.41,34.26 -126.17,72.5 -157.58,113.74 -11.73,-11.98 -21.99,-20.84 -28.89,-26.66 -21.48,-18.11 -119.82,-37.35 -148.49,-28.57l-130.39 39.96c10.97,7.35 45.58,39.94 84.51,43.9 65.72,-20.45 122.03,-11.56 181.79,84.93 1.78,2.88 3.58,5.92 5.38,9.1 -2,19.11 -4.05,39.84 -5.99,61.51 -4.16,46.58 -7.34,93.16 -7.34,127.47l0.07 13.59c-6.28,-84.81 -79.18,-178.28 -119.48,-208.33 -29.65,-22.12 -132.71,-9.28 -197.53,-79.93 -32.23,-35.14 -54.97,-39.52 -100.66,-53.39 -45.69,-13.89 -58.06,3.42 -90.57,3.32 -44.16,-0.12 -41.84,-60.1 -22.01,-73.32 48.01,-25.38 155.3,0.06 207.51,35.85 15.24,-6.41 37.28,-16.59 60.92,-26.63 -28.68,-17.65 -123.52,-73.88 -190.14,-88.21 -79.33,-17.11 -266.76,15.29 -335.46,35.08 -68.7,19.79 -185.98,101.66 -237.57,140.35 -51.59,38.68 -81.28,133.79 -63.52,190.69 44.07,141.25 18.79,217.09 -87.11,350.17 -50.3,63.22 -125.87,142.58 -119.61,228.69 15.46,212.72 150.33,225.26 123.42,323.06 -14.55,52.89 -43.89,146.1 -30.85,210.1 13.04,64.01 33.69,153.55 81.58,221.39 47.89,67.84 100.61,187.67 110.55,241.57 9.95,53.9 119.25,157.33 170.03,186.94 31.72,18.47 59.23,70.17 98.2,92.01 40.44,22.69 146.12,31.96 201.07,50.16 186.54,61.84 234.14,18.63 378.51,-26.8 -242.57,38.54 -345.82,-44.65 -397.68,-48.64 -140.07,-10.81 -115.69,-76.53 -108.7,-76.92 7,-0.38 1.45,-38.92 227.78,26.54 73.81,21.36 342.59,22.36 489.07,27.61 146.49,5.24 179.67,-17.1 197.84,-36.32 18.17,-19.2 64.73,-68.63 64.37,-119.26 -0.84,-116.4 -103.89,-124.51 -183.86,-162.99 -83.27,13.33 -171.03,26.72 -195.17,29.59 -44.02,5.24 -256.85,-16.54 -397.88,-19.69 -141.04,-3.15 -189.82,-54.37 -297.74,-48.07 -140.55,8.22 -242.38,-134.12 -119.85,-120.76 61.2,6.68 174.35,38.58 294.23,57.52 197.38,31.18 662.57,59.55 765.08,-5.92 82.56,-52.73 4.31,-253.33 -21.26,-273.55 -191.34,-151.2 -161.44,-49.67 -390.26,-169.46 -58.8,13.2 -60.4,10.69 -93.77,9.66 -69.54,-2.16 -244.65,-16.41 -351.7,-5.54 -103.85,10.54 -482.34,-90.95 -374.38,-178.95 0,0 154.85,64.94 284.33,64.94 259.95,0 594.54,81.7 772.09,-88.79 25.16,-24.16 51.29,-101.76 48.73,-130.92 -2.56,-29.16 -35.51,-143.37 -66.39,-180.08 -51.68,-61.42 -236.11,-61.78 -317.57,-70.49 -78.99,-8.44 -236.81,-63.75 -292.12,-69.4 -55.31,-5.64 -197.43,-20 -248.76,-21.88 -49.31,-1.8 -169.38,-124.67 -84.05,-201.04 55.96,183.79 230.85,77.8 417.03,143.27 104.44,36.72 424.71,97.86 510.36,12.01 21.81,-21.87 31.63,-48.02 33.17,-75.74 0.93,57.12 4.26,113.51 9.93,168.98 -6.1,3.72 -12.62,7.34 -19.64,10.85 7.21,4.91 14.92,10.34 22.58,15.96 17.28,148.29 51.34,289.87 100.86,421.67 -3.11,5.82 -6.7,10.88 -10.83,15.03 14.33,22.88 23.03,39.8 36.26,48.62 13.23,31.2 27.37,61.78 42.38,91.72 -69.69,-11.56 -92.55,-18.46 -132.72,-90.19 -54.18,43.12 -78.53,57.59 -141.63,76.05 136.15,48.1 228.52,2.37 331.66,158 13.99,27.11 28.91,34.9 35.57,37.85 1.06,0.47 7.36,1.87 17.23,3.89 33.01,47.43 68.61,92.56 106.72,135.12 29.84,33.33 61.21,65.08 94.04,95.15l23.16 234.42 -5.37 -7.38c4.32,23.07 6.69,136.42 -4.84,235.87 -12.17,105.03 -68.81,233.33 -153.49,369.53 -84.69,136.2 -239.55,200.18 -360.65,227.73 -205.23,46.68 -707.37,-145.72 -804.6,-285.96 -46.68,-67.31 -191.72,-301.2 -191.72,-301.2 10.62,45.7 12.76,49.94 64.82,156.28 35.72,72.96 157.41,363.02 181.61,436.78 20.9,63.69 190.14,435.17 236,535.5 57.73,2.23 118.73,-2.65 172.11,-11.73 97.71,-16.62 300.38,-87.05 382.92,-141.83 82.53,-54.78 250.47,-231.43 312.82,-317.47 62.34,-86.05 151.72,-300.06 196.86,-502.53 31.1,-139.5 25.66,-332.43 35.01,-485.71l-25.54 -91.3c35.69,29.01 72.92,56.13 111.64,81.27 57.94,248.04 -25.35,505.13 -87.59,749.36 -50.33,197.53 -187.21,365.9 -379.41,585.42 -192.19,219.52 -763.29,246.26 -848.01,225.67 -51.78,-12.58 -148.09,-96.47 -212.29,-157.97 57.19,92.19 114.82,134.74 150.84,201.73l110 0c22.77,42.34 36.92,94.43 36.86,175l-177.53 -103c-13.46,-24.37 -30.73,-46.26 -52.15,-72l-110 0 -16.23 -19.39c-68.12,-81.23 -210.77,-355.68 -281.11,-587.17 -70.33,-231.48 -117.9,-735.17 -118.61,-833.81 -0.63,-88.54 99.1,-278.31 107.3,-307.21l-32.07 -71.24c-32.49,27.87 -149.7,218.12 -233.34,320.6 -57.24,70.12 -181.46,368.12 -203.3,495.02 -21.84,126.89 -10.97,442.27 39.54,598.6 33.04,102.25 97.59,271.94 161.29,404.6l110 0c28.89,60.17 57.6,112.72 83.12,147.9l-132.21 133.8zm1722.79 -3900.88c-10.7,-36.06 -23.43,-74.98 -23.43,-74.98 -19.18,-48.08 -45.75,-102.68 -73.56,-122.85 -117.22,-84.93 -348.44,-77.9 -381.51,98.07 -10.86,57.82 6.69,169.03 12.46,197.67 16.96,84.21 130.55,93.32 243.57,87.15 121.73,-6.65 243.12,-75.5 236.29,-131.8l-13.82 -53.26zm113.97 1965.15l-84 -158.82c9.85,62.02 -22.3,159.81 -55.85,182.79 -4.91,3.35 -15.69,7.02 -30.54,10.84 40.47,24.88 100.99,64.71 124.65,93.79 69.63,85.57 39.09,205.55 -31.31,294.34l85.5 -48.91c21.29,-114.81 9.9,-260.95 -8.45,-374.03zm-196.17 477.63c-77.69,2.45 -170,-6.05 -207.96,-6.87 -101.15,-2.21 -234.76,173.77 -550.53,100.25 -55.45,-12.91 -114.08,-35.8 -154.3,-49.94 36.52,52.91 134.05,108.84 197.59,127.11 61.06,17.54 270.41,19.24 340.38,5.38 101.46,-20.11 247.1,-118.23 374.82,-175.93zm-1305.53 -349.98l-62.83 -129.44c-78.01,236.2 28.19,656.28 84.21,960.59 14.3,77.73 51.86,174.1 95.85,266.06 79.53,80.6 212.87,248.98 324.11,273.36 -69.19,-169.89 -472.73,-1009.84 -467.26,-1180.89 2.19,-68.82 26.84,-142.61 25.92,-189.68zm3594.53 -1897.23c78.87,-28.89 135.13,-49.37 135.13,-49.37l-165.88 -248.93c0,0 -70.82,-47.11 43.64,-104.9 120.59,-60.71 430.82,-275.07 637.59,-436.12 -44.51,-2.23 -36.56,0.29 -86.48,28l-102.55 57.56c-149.98,85.23 -886.1,299.42 -965.66,325.67 -28.55,9.4 -142.55,45.96 -196.84,84.45 -117.18,59.49 -239.49,157.42 -281.51,200.26 -39.25,-0.88 -78.96,-1.34 -119.07,-1.34 -69.52,0 -137.84,1.36 -204.61,3.97 -51.01,-24.97 248.59,-154.23 326.13,-246.64 60.56,-36.53 112.85,-62.25 145.87,-70.53 91.57,-22.95 208.31,-80.61 305.93,-97.83 97.62,-17.22 271.4,-29.48 363.87,-80.63 81.62,-45.08 375.67,-163.11 547.75,-231.7 -36.9,-7.05 -69.83,-15.4 -96.05,-25.24 -183.54,-68.86 -426.22,-58.43 -531.46,-117.74 -57.21,-32.25 -51.67,-45.47 -110.87,-69.9 -59.2,-24.4 -64.86,-27.83 -168.23,-58.57 -167.02,-49.66 -12.61,-78.68 -201.07,-201.43 -21.34,-13.91 -29.27,-60.25 -58.23,-78.11 -22.19,-13.67 -80.27,-14.26 -107.4,-31.74 -106.8,-68.75 -144.37,-150.61 -210.13,-197.4 -25.36,-18.04 -90.19,-26.55 -130.94,-52.38 -146.42,-92.83 -306.8,-201.99 -315.8,-303.44 -8.99,-101.48 -127.98,-93.59 -222.61,-206.33 -94.63,-112.74 -11.66,-323.13 -57.9,-427.4 -15.43,-34.82 -65.57,-57.9 -87.49,-111.9 -43.77,-107.77 -92.61,-241.68 -114.82,-353.24 -33.35,-167.44 68.87,-703.52 68.87,-703.52 0,0 -60.47,-224.21 -70.94,-310.18 -10.49,-86 -55.83,-386.37 16.15,-1099.49 71.97,-713.13 334.42,-1308.21 505.02,-1619.66 170.6,-311.42 353.29,-298.92 378.78,-193.23 25.49,105.7 65.16,742.27 117.39,1104.65 52.23,362.38 289.46,857.24 508.03,1077.42 -155.94,-498.41 128.96,-979.65 263.71,-1273.06 134.76,-293.4 273.41,-75.69 273.41,-75.69 0,0 -63.17,-441.03 323.61,-829.68 421.44,-423.46 1442.99,-54.39 1760.74,375.51l166.22 -35.6c0,0 198.63,-386.61 439.35,-561.01 240.72,-174.41 410.92,34.02 518.01,97.47 107.1,63.45 199.83,-0.19 419.24,93.08 219.39,93.26 516.3,274.65 746.27,509.95 229.96,235.3 366.13,640.15 359.36,746.65 -6.77,106.49 -230.46,642.63 -230.46,642.63 518.21,271 815.76,710.51 701.06,1210.06 -54.99,239.48 -307.25,229.33 -307.25,229.33 35.33,128.09 61.96,246.7 93.88,373.93 35.04,116.63 79.63,273.68 103.85,351.85 62.54,-21.55 135.49,-12.45 235.67,83.93 157.04,151.07 198.23,364.19 225.29,458.06 27.07,93.87 187.69,307.28 297.91,422.8 110.22,115.54 166.29,148.07 193.47,245.19 154.1,87.14 629.58,338.8 1045.84,561.67 362.18,193.92 912,507.51 1100.98,562.71 188.99,55.2 435.02,243.74 435.02,243.74 0,0 254.91,39.88 401.31,212.51 146.4,172.64 174.87,485.43 205.24,723.71 30.37,238.27 84.01,546.5 59.98,620.73 -24.03,74.23 -127.59,141.02 -61.38,238.68 66.22,97.66 225.75,235.61 258.16,341.31 32.41,105.68 -74.92,221.42 -45.08,281.85 29.85,60.43 189.69,148.55 193.05,301.78 3.36,153.22 -2.21,253.63 41.27,322.68 43.47,69.06 293.93,425.7 373.12,622.53 72.3,179.7 381.71,919.17 511.39,1386.79l-265.95 76.46c-26.63,-105.22 -49.92,-194.27 -64.17,-242.9 -49.16,-167.75 -482.03,-1359.64 -547,-1487.17 -64.96,-127.54 -220.31,-471.05 -254.39,-508.67 -34.08,-37.63 -89.05,-151.87 -145.23,-186.07 -56.17,-34.2 -149.68,-76.61 -198.56,-93.03 -48.87,-16.42 -302.64,-9.58 -379.61,54.72 -76.98,64.3 -140.78,165.54 -140.78,165.54 -104.24,72.36 62.36,-305.43 240.43,-324.32 103.16,-10.93 295.18,-12.93 349.92,21.27 54.73,34.21 138.3,61.11 196.13,126.78 57.83,65.66 70.1,106.05 70.1,106.05 -15.43,-160.31 22.51,-103.18 -75.94,-283.68 -35.89,-65.81 -116.09,-69.37 -75.81,-172.53 40.28,-103.16 45.44,-163.64 11.52,-213.44 -33.92,-49.78 -215.42,-245.07 -238.59,-301.17 -23.18,-56.1 -14.51,-171.89 38.19,-227.99 52.7,-56.1 61.55,-144.76 55.52,-191.82 -6.03,-47.05 -51.42,-452 -78.22,-582.77 -26.8,-130.76 -117.31,-398.05 -211.27,-516.48 -93.96,-118.43 -179.63,-162.86 -252.19,-182.6 -72.56,-19.74 -286.97,17.29 -405.47,83.91 -118.5,66.62 -538.42,534.85 -756.52,1067.36 -218.09,532.51 -385.57,1054.06 -514.67,1652.25 -182.06,843.59 129.2,1627.88 414.11,2328.84l-281.56 -86.61c-173.36,-460.27 -344.25,-804.95 -396.92,-1260.62 -36.62,-316.75 18.98,-1210.93 191.55,-1706.68 172.58,-495.75 580.89,-1389.94 734.63,-1597.86 153.75,-207.92 391.75,-408.9 498.86,-453.31 107.11,-44.41 250.32,-94.7 317.41,-95.5 0,0 -472.44,-178.99 -644.28,-220.55 -171.85,-41.57 -749.56,-374.16 -943.16,-495.97 -193.59,-121.81 -591.48,-252.19 -715.43,-296.08 -59.56,-21.08 -65.32,-35.43 -89.94,-49.33 -18.18,288.09 -31.53,366.02 -42.92,811.78 -11.25,440.68 97.8,509.57 51.92,553.63 -45.88,44.08 -883.89,206.07 -883.89,206.07 0,0 251.31,188.52 438.72,316.47 187.42,127.95 289.79,200.89 273.32,240.87 -16.04,38.93 -1254.52,1702.13 -1441.83,1961.99 362.28,-16.59 1117.03,-53.54 1367.77,-84.24 334.49,-40.97 469.9,-106.23 504.75,-35.26 34.85,70.97 -67.38,578.75 -66.77,663.37 0.61,84.63 15,95.55 -196.46,136.5 -211.46,40.94 -1859.08,122.85 -2085.13,122.85 -48.62,0 -90.21,0.12 -125.56,0.34 -291.03,389.22 -639.19,859.33 -925.27,1262.54l-197.9 -51.16c89.91,-127.74 173.74,-244.96 235.98,-336.33 202.94,-297.93 1455.33,-2025.92 1794.54,-2478.32 339.21,-452.39 928.16,-1178.94 897.8,-1206.4 -30.36,-27.47 -420.24,-254.52 -621.54,-436.74 -201.3,-182.23 -446.42,-535.06 -500.91,-612.23 -54.48,-77.19 -118.88,-11.3 -118.88,-11.3 0,0 -401.89,760.55 -603.47,1211.77 -201.58,451.21 -698.77,1606.79 -885.33,2016.6 -150.7,331.01 -367.56,1251.27 -491.68,1786.23l-175.86 -4.82c164.36,-723.93 246.24,-1035.45 483.87,-1651.28 -645.29,372.02 -1528.97,831.56 -1966.45,1154.13 -128.37,-450.29 -271.99,-863.17 -321.36,-1327.61 -15.92,-149.87 41.53,-882.6 45.03,-985.89 3.5,-103.3 162.86,-902.12 203.86,-1052.73 31.6,-116.14 70.92,-326.88 150.36,-583.27 -202.27,331.1 -415.34,853.3 -626.07,1305.93 -147.22,316.21 -310.02,568.19 -396.45,825.81l0.33 45.27c130.68,297.51 294.29,652.86 456.11,987.36l-76.45 125.53c-94.99,-184.05 -418.48,-827.88 -435.76,-944.33 -214.94,705.89 -396.31,1668.55 -502.69,2098.6 -36.63,148.04 -85.86,410.02 -138.84,713.12l-123.31 -209.02c93.79,-547.49 125.21,-686.23 296.61,-1322.35 -1.55,4.21 -3.2,8.5 -4.89,12.85l323.01 -1245.28c94.21,-363.19 182.58,-543.48 280.53,-730.57 114.5,-218.69 443.7,-1003.42 491.92,-1114.97 48.23,-111.56 266.21,-500.65 317.86,-579.13 51.66,-78.44 123,-138.38 131.64,-159.71 40.28,-99.44 126.82,-276.89 197.77,-400.21 -90.54,-21.06 -200.42,-32.64 -280.67,72.46 -60.67,79.46 -433.7,372.49 -515.16,414.88 -15.32,7.97 -44.17,21.33 -81.17,37.93 -41.6,-24.06 -91.82,-46.46 -149.59,-66.94zm-992.28 2027.57l-2.85 30.36 -1.27 -0.11c-0.41,487.08 -280.37,1660.6 -372.73,2144.17l-22.69 228.2 113.14 191.78c16.93,-171.81 40.98,-378.48 69.78,-530.92 144.83,-766.96 239.71,-1320.92 307.11,-2029.15l5.17 -44.42c-31.39,4.38 -63.28,7.75 -95.66,10.09zm-594.94 -79.48l-1.97 59.7 -6.62 72.37 0.34 46.17 -0.01 0 2.67 371.87 -3.53 0.24c-35.43,509.19 -70.09,1018.26 -97.96,1419.01l163.37 276.93 83.89 -1141.03c25.99,-415.79 4.98,-676.75 26.9,-965.59l-0.01 0 6.77 -89.13c-60.01,-13.14 -118,-30.06 -173.84,-50.54zm2412.66 1945.12c515.12,-298.7 1017.43,-623.17 1537.95,-911.17 78.1,-43.22 347.08,-187.31 429.79,-231.58 328.25,-832.4 819.26,-1966.77 1004.68,-2330.99 56.61,-111.2 126.56,-241.4 204.87,-382.91 -176.53,225.02 -671.3,853.07 -737.05,907.47 -126.47,104.61 -1464.99,1655.82 -1764.05,2019.92 -147.02,179 -505.31,588.84 -703.73,836.03 10.34,35.48 19.7,67.05 27.54,93.23zm-73.27 -215.85c392.21,-504.35 402.64,-530.53 801.43,-984.84 35.21,-77.33 152.82,-298.21 164.19,-353 17.22,-82.88 186.08,-772.5 196.62,-852.81 10.55,-80.29 51.58,-325.29 54.56,-392.81 6.09,-137.41 35.28,-140 -90.05,-224.2 -47.78,-32.09 -85.99,-62.38 -168.33,-57.94 -82.35,4.44 -140.56,62.94 -149.56,101.69 -9.01,38.74 -213.85,278.88 -269.84,372.99 -56,94.12 -286.15,510.93 -423.95,825.95 -108.65,248.34 -249.05,521.45 -300.04,630.07 17.2,353.17 88.39,589.47 184.97,934.9zm2236.91 -8420.14c0,0 -204.03,-301.4 -175.06,-509.81 28.98,-208.4 78.3,-234.05 105.4,-173.14 27.1,60.92 70.15,221.24 150.89,327.04 80.74,105.81 -81.23,355.91 -81.23,355.91zm117.81 -2349.44c0,0 11.6,117.25 118.59,142.04 142.25,32.94 547.95,52.44 640.46,165.89 0,0 -279.85,-77.73 -395.22,-59.75 -115.37,17.97 -421.78,4.59 -475.22,-99.61 -53.45,-104.2 28.18,-203.23 111.39,-148.57zm-1992.04 12.19c0,0 -524.74,24.89 -670,388.48 -60.52,151.5 -86.78,350.19 -59.95,510.36 85.21,508.6 528.47,741.6 1060.23,726.68 308.66,-8.65 1113.51,-115.1 1113.51,-115.1 0,0 -62.31,91.14 -74.4,241.53 -234.91,7.55 -922.23,112.81 -1272.34,60.38 -511.7,-76.64 -794.48,-432.49 -1044.73,-838.03 -111.34,-531.45 248.5,-1120.6 947.68,-974.3zm1182.96 496.98c6.36,105.4 5.42,286.26 59.39,426.79 63.65,165.76 192.77,286.9 341.24,327.91 -42.68,73.07 -108.32,197.81 -108.32,197.81 0,0 -251,-96.25 -391.57,-287.16 -140.58,-190.9 -112.5,-526.79 -91.22,-591.1 21.28,-64.32 190.48,-74.25 190.48,-74.25zm746.23 941.74c0,0 5.43,97.42 89.22,200.5 149.34,18.02 1494.01,422.41 1891.93,1012.61 -116.75,-560.11 -1479.19,-1121.89 -1981.15,-1213.11zm1875.93 2380.19c-33.87,-112.49 -26.72,-125.98 -44.88,-211l-86.67 -278.86c-716.81,-238.6 -820.59,-999.27 -1457.96,-999.27 481.23,171.49 555.38,533.55 577.96,710.7 14.75,115.72 -236.95,-445.74 -489.37,-537.58 -130.67,-47.53 -135.91,80.72 -135.91,80.72 -136.61,-100.37 -159.23,-194.5 -77.84,-384.92 99.09,-231.83 -170.96,-399.76 -259.81,-755.29 -38.95,-155.84 -0.68,-333.01 -75.85,-265.75 -75.18,67.25 -253.8,435.42 -263.59,654.99 -9.79,219.55 156.42,417.41 208.15,498.73 51.72,81.33 -16.25,111.14 -79.22,46.08 -62.98,-65.05 -137.6,-168.05 -254.39,-211.42 -116.79,-43.37 -162.31,-51.5 -315.65,-40.66 -153.35,10.84 -578.34,-4.16 -800.82,-55.43 -222.48,-51.27 -499.22,-174.31 -499.22,-174.31 0,0 62.33,148.89 27.74,243.75 -34.6,94.84 -34.92,122.6 -83.53,203.46 69.52,-66.74 95.49,-100.96 111.13,-156.05 15.63,-55.08 22.76,-157.98 39.03,-162.76 17.55,-5.17 41.03,109.6 -1.41,225.85 -96.76,265.02 -282.96,384.73 -565.5,419.73 -198.27,24.59 -398.57,-38.04 -601.64,-119.02 -64.46,-25.71 -13.84,60.29 11.28,151.67 25.12,91.39 115,385.66 -10.08,581.5 -125.08,195.84 -95.31,101.91 -54.55,2.99 40.76,-98.91 46.28,-203.8 7.77,-248.33 -20.44,41.54 -80.08,193.93 -158.36,265.12 -78.28,71.21 -278.09,258.28 -620.09,274.46 -341.99,16.18 -588.93,-118.69 -651.55,-175.34 -62.61,-56.65 -88.38,-102.5 -132.82,-79.77 0,0 -91.74,332.6 -97.59,488.93 -4.8,128.28 45.05,307.93 100.31,454.63 12.07,32.06 67.97,46.07 82.32,73.03 77.92,146.3 -4.85,391.05 18.54,442.93 23.37,51.88 44.18,71.06 77.65,71.06 33.47,0 129.96,-78.92 178.02,-180.25 47.27,-99.64 66.04,-124.43 83.99,-175.4 17.95,-50.97 69.86,5.18 20.59,158.07 -50.83,157.76 -101.08,165.89 -146.26,212.3 -50.91,52.32 -76.91,61.78 -29.82,91.09 41.99,26.13 65.05,2.95 66.96,68.98 1.92,66.03 152.55,216.5 243.55,254.79 91.01,38.29 145.27,17.32 205.06,87.2 62.5,73.06 71.02,107.83 140.08,148.94 31.53,18.78 97.58,-0.58 175.15,47.99 33.03,20.68 39.76,89.02 62.03,99.54 43.62,20.6 67.64,16.97 87.56,58.82 30.1,63.22 69.47,80.14 103.8,58.21 34.33,-21.94 161.76,-203.59 308.26,-291.32 400.98,-240.14 771.55,-180.94 835.87,-202.89 15.14,-5.16 90.4,-22.13 96.85,-57.31 17.58,-96.05 -203.7,-50.23 -143.14,-132.36 38.48,-52.19 195.01,10.75 284.37,121.41 88.01,109.03 98.56,248.59 44.25,262.62 -65.96,17.04 -6.96,-55.07 -73.93,-106.7 -75.79,-58.43 -80.06,-29.59 -242.45,65.04 -64.12,37.38 -97.54,111.88 -167.87,112.92 -146.74,2.15 -109.28,68.6 -218.04,187.12 -108.76,118.53 -213.37,193.93 -347.24,210.2 -133.86,16.26 324.33,107.02 453.65,137.24 129.31,30.21 373.13,60.42 482.5,25.57 109.37,-34.87 250,-125.51 339.31,-239.38 89.31,-113.89 107.34,-82.18 91.68,14.42 -15.67,96.6 -194.19,174.79 -220.68,214.31 -53.92,80.36 1574.24,-377.7 1780.06,-1404.85 27.26,-136.11 67.74,-217.64 77.19,-63.58 9.46,154.06 -18.23,376.09 -145.08,571.17 -56.1,86.28 -263.57,296.41 -196.49,260.01 42.83,-23.24 299.27,-177.26 427.64,-214.71 128.38,-37.45 395.74,-325.69 519.26,-561.11 123.52,-235.41 294.1,-675.7 246.73,-894.16 -47.37,-218.44 51.1,-131.55 70.92,91.87 19.81,223.41 -91.16,563.68 -149.86,723.56 -123.16,335.42 -313.73,586.38 -634.65,756.01 -140.81,74.45 -283.76,134.59 -406.78,190.42 -123.02,55.83 -180.85,110.12 -308.3,153.78 -218.61,74.88 -263.44,234.38 -730.87,368.37 155.17,320.8 188.92,307.55 446.39,540.34 58.86,-35.8 72.47,-41 103.8,-49.02 66.02,-16.92 110.78,-53.18 290.72,-157.84 179.95,-104.67 1184.49,-706.36 1380.86,-832.82 103.36,-66.56 278.04,-207.69 450.61,-353.87 156.41,-455.75 178.38,-1067.68 178.38,-1067.68 36.61,23.88 76.59,137.34 68.32,348.84 -7.77,198.75 -48.44,461.37 -65.16,562.79 189.71,-165.32 538.92,-389.58 573.77,-641.48 -30.97,-118.95 -79.45,-409.18 -135.14,-611.78zm-4154.3 2425.14c37.82,0.24 70.04,-0.52 93.05,-2.09 106.69,-7.3 113.08,14.67 272.87,-23.7 -18.33,141.75 -50.98,256.4 -80.21,321.38 -285.48,-23.67 -277.78,-6.97 -471.63,179.24 -57.77,55.5 -365.36,287.48 -365.51,265.45 -0.07,-9.45 -159.11,-207.53 -128.25,-225.25 78.55,-45.13 489.37,-344.76 679.68,-515.03zm486.1 -57.97c90.29,-26.09 189.94,-46.86 268.37,-71.71 122.81,257.63 181.08,305.32 438.58,578.18 -18.36,12.15 -14.51,1.14 -27.41,10.55 -247.01,-168.83 -261.84,-242.97 -529.21,177.41 -122.35,192.36 -299.98,459.14 -319.37,501.98 -19.4,42.85 -7.53,-51.52 3.79,-119.94 11.33,-68.4 110.57,-657.55 127.93,-819.49l37.32 -256.98zm-1465.5 -1333.28c-24,-4.33 -37.93,-135.17 90.74,-232.15 128.68,-96.97 312.91,-192.04 390.26,-145.02 77.35,47 100.11,230.24 57.18,256.69 -42.93,26.45 -138.89,-217.17 -230.88,-158.41 -48.7,31.1 -150.1,65.53 -213.23,131.3 -56.08,58.42 -75.91,150.85 -94.07,147.59zm-214.11 208.65c0,0 -110.39,-253.82 -83.43,-359.61 26.96,-105.8 66.32,-307.47 195.54,-328.02 129.22,-20.59 215.04,-79.36 328.63,-132.26 113.59,-52.88 440.28,-26.44 499.58,82.29 59.3,108.73 -38.22,252.72 -25.48,311.5 12.74,58.76 110.04,-117.54 134.07,-202.77 24.03,-85.23 7.8,-199.83 -81.84,-243.9 -89.64,-44.08 -209.98,-73.48 -364.03,-79.35 -154.05,-5.88 -233.56,73.46 -344.09,123.42 -110.53,49.96 -319.8,76.4 -368.56,149.87 -48.75,73.47 -74.74,314.43 -64.59,440.79 10.15,126.37 205.76,343.82 174.2,238.04zm154.65 700.55c74.43,-70.86 212.51,-192.48 324.15,-234.56 161.27,-60.76 183.02,-107.84 403.42,-123.89 113.71,-8.27 84.41,14.65 2.36,52.87 -59.55,27.74 -158.53,53.67 -194.63,129.48 -28.95,60.77 -149.19,198.64 -263.99,237.36 -76.71,25.88 -208.91,45.83 -279.54,34.62 -94.26,-14.98 -25.45,-63.79 8.23,-95.88zm-108.57 -3451.58c0,0 -59.87,-263.84 -31.33,-537.28 28.55,-273.45 232.34,-666.37 292.41,-745.92 60.06,-79.55 148.74,37.73 267.4,200.45 118.65,162.71 382.38,470.05 512.54,650.86 130.16,180.79 140.13,350.12 63.32,448.72 -76.82,98.62 -188.52,207.28 -392.6,235 -246.09,33.41 -708.91,-144.95 -711.74,-251.83zm-1381.69 913.29c255.22,187.33 507.64,311.43 851.36,223.81 350.98,-89.45 618.35,-295.82 615.65,-671.7 -0.84,-116.54 -190.74,-386.88 -263.57,-458.74 -72.82,-71.86 -324.79,-306.89 -470.49,-719.45 -145.69,-412.58 -170.21,-943.14 -170.95,-1046.12 -0.74,-102.97 -11.48,-343.82 -53.37,-374.11 -41.89,-30.28 -133.57,95.69 -213.75,260.39 -80.18,164.69 -196.72,532.43 -256.34,747.89 -55.87,201.97 -291.18,994.92 -146.17,1817.66 22.33,126.67 46.26,175.33 107.63,220.37zm5730.02 7116.85c347.67,-7.88 1343.06,-38.79 1625.56,-75.56 340.21,-44.28 501.28,-43.29 509.56,-86.98 8.28,-43.67 57.17,-406.75 19.99,-404.02 -523.81,38.43 -1064.23,130.45 -1814.59,113.41 -82.32,109.71 -201.2,267.4 -340.52,453.15zm-2485.2 -2431.34c-105.44,-71.68 -26.4,-158.43 -27.93,-176.03 -1.54,-17.63 1.69,-363.59 -4.85,-409.56 -10,-70.38 -69.65,-75.09 -20.14,-147.92l-53.56 -65.9c-113.43,172.21 -255.42,342.4 -281.95,396.71 -43.31,88.64 -162.81,62 -136.03,-54.18 62.11,-269.5 84.9,-428.12 131.92,-705.2 -32.96,59.86 -30.89,58.44 -66.01,153.2 -49.93,134.69 -329.14,1478.79 -356.11,1619.35 -23.52,122.61 -92.2,748.79 -103.86,1041.76 50.41,-113.83 196.91,-442.07 248.83,-529.81 63.14,-106.69 228.31,-466.36 314.57,-589.27 86.26,-122.91 335.03,-492.42 335.03,-492.42l20.09 -40.73zm39.86 -795.64c55.11,-47.63 105.95,-57.83 187.98,-80.45 -26.02,-103.82 -101.28,-161.22 -90.59,-276.05 -88.05,86.61 -90.57,125.19 -185.58,268.64l88.19 87.86zm272.14 -99.44c16.47,-2.46 13.33,-2.84 30.59,-3.62 7.71,-72.61 -7.16,-248.32 14.55,-270.4 -53.13,-33.73 -72.13,-50.67 -133.89,-27.2 24.4,176.75 19.85,155.02 88.75,301.22zm150.82 -0.8c80.33,2.27 100.69,23.75 189.18,56.75l314.11 -191.83c-98.89,-132.68 -77.15,-86.55 -131.89,-44.19 -44.77,34.63 -197.67,23.8 -242.46,33.32 -71.54,15.19 -110.06,84.34 -128.94,145.95zm292.56 99.01c166.43,70.29 238.92,124.99 323.33,261.27l188.45 -95.93c-97.76,-129.3 -175.71,-232.1 -246.49,-326.57l-265.29 161.23zm375.35 329.19c20.54,55.16 -56.14,71.59 -101.74,127.3 -33.34,40.75 -129.41,119.27 -198.78,231.41 -38.55,62.33 -91.12,219.79 -215,237.28 -22.08,134.19 -20.42,398.68 -38.49,464.59 -18.04,65.85 -167.28,734.05 -212.73,937.94 424.98,-482.22 962.82,-1085.74 962.82,-1085.74l1377.85 -1563.62c46.04,-80.77 93.37,-163.11 141.27,-245.93 -81.57,91.92 -181.79,203.7 -224.13,246.19 -76.94,77.22 -906.75,912.97 -956.63,946.63 -49.88,33.64 -117.68,0.3 -147.7,-45.72 -12.56,-19.26 -62.61,-165.86 -185.78,-328.79l-200.96 78.46zm-1089.19 -192.55c10.7,-105.94 326.72,-157.94 438.03,-136.33 130.78,25.4 266.01,87.86 353.91,153.49 87.9,65.64 156.97,121.06 158.69,159.36 1.71,38.3 -66.68,95.72 -106.63,121.7 -39.95,25.99 -220.84,259.55 -251.42,308.74 -30.59,49.19 -47.1,83.64 -58.77,73.8 -11.67,-9.85 -90.97,-100.86 -196.85,-126.68 -105.89,-25.82 -210.44,-44.28 -251.5,-17.22 -167.15,110.16 -86.56,73.68 -66.14,-56.57 6.16,-39.35 -29.55,-409.93 -19.32,-480.29zm2948.97 -952.93c151.19,-258.8 300.81,-511.49 426.7,-724.22 339.12,-573.04 417.23,-911.55 411.46,-1046.61 -5.9,-138.04 -35.01,-309.39 -133.28,-332.26 -24.7,172.99 46.94,375.96 -128.36,576.62 -153.57,175.78 -685.38,637.02 -766.17,697.29 -80.78,60.27 -1023.89,647.46 -1145.99,730.53 -122.1,83.07 -717.68,402.27 -750.77,419.43 -33.1,17.17 -120.62,70.66 -175.59,80.5 -54.97,9.85 -260.43,69.71 -281.22,94.87 -20.78,25.17 -25.42,111.57 -25.42,111.57 0,0 56.06,-108.03 137.07,-115.31 81.01,-7.3 236.45,-12.59 259.98,-37.39 23.53,-24.82 41.05,-79.56 76.33,-65.68 35.28,13.86 256.53,267.9 379.35,415.39 122.82,147.49 320.03,504.63 352.79,511.73 32.76,7.1 116.98,-135.46 149.48,-163.82 32.51,-28.36 691.15,-633.55 765.59,-698.09 59.91,-51.96 340.76,-342.98 448.05,-454.55zm1592.69 -867.8c3.27,23.4 -10.49,70.36 -9.93,99.2l376.74 192.02c-127.82,-108.59 -176.86,-184.28 -366.81,-291.22zm-1599.62 1084.04c0,0 44.35,-48.77 110.17,50.27 65.81,99.04 483.93,572.2 483.93,572.2 0,0 727,-207.69 772.18,-235.7 45.18,-28.01 51.83,-31.83 43.26,-110.77 -8.58,-78.95 -22.35,-609.79 -0.01,-771.76 22.35,-161.95 88.57,-543.58 77.44,-613.13 -11.13,-69.56 -101.01,-199.95 -171.93,-261.22 -70.92,-61.26 -230.95,-304.86 -261.17,-408.01 -92.51,-315.69 -60.49,-270.03 -148.74,-402.32 0,0 21.56,104.21 28.07,198.69 6.5,94.48 -93.52,578.12 -241.14,829.99 -147.62,251.86 -565.29,964.55 -603.3,1013.34 -38.01,48.79 -88.76,138.42 -88.76,138.42z"/>
   <circle class="fil0" cx="11532.39" cy="4731.08" r="55.63"/>
   <path class="fil4" d="M11381.52 4684.17c-46.35,72.63 -92.01,248.35 -202.99,194.91 -15.48,-7.46 -39.57,0.57 -37.84,22.93 1.7,22.05 27.11,49.19 58.63,57.6 43.41,10.11 84.41,2.94 112.12,-28.34 22.97,26.36 17.48,37.4 63.33,58.97 61.15,28.76 207.92,100.17 264.19,104.74 160.67,13.02 271.97,-65.83 320.25,-167.24 -28.54,13.25 -129.96,120.29 -291.33,110.66 -104.94,-6.27 -250.89,-62.06 -315.73,-115.78l104.32 -183.3c30.16,28.54 30.58,29.74 32.99,117.48 -16.15,2.48 -31.2,2.39 -46.91,7.34 -74.1,0.47 -20.1,39.57 33.39,50.58 204.78,42.13 369.62,15.6 470.8,-218.27 63.47,-2.55 65.06,17.54 109.79,-3.61 8.26,-65.13 -54.28,-90.25 -141.71,-144.65 -158.24,-98.45 -250.89,-159.69 -404.81,-23.37 -26.86,23.79 -110.05,118.07 -128.49,159.35zm217.07 -310.39c94.62,-29.35 156.52,-16.08 230.68,20.98 70.02,35.01 130.38,63.07 174.44,104.71 -28.21,-60.37 -47.47,-67.96 -102.3,-107.72 -214.33,-155.36 -369.5,-109.25 -522.75,54.43 -63.88,68.24 -159.78,354.77 -179.4,424.26 148.95,-105.8 148.63,-417.6 399.33,-496.66zm-43.61 323.19c38.94,30.09 33.81,28.15 85.03,14.99 38.13,-131.66 -93.54,-125.54 -85.03,-14.99zm266.33 39.7c68.94,-0.41 62.76,-2.82 82.01,-53.81 -15.81,-41.19 -30.85,-68.95 -86.66,-62.61l4.65 116.42z"/>
   <g>
    <path class="fil2 str0" d="M20655.34 12273.8c19.69,-296.7 15.41,-477.26 -325.48,-461.09 -289.55,13.73 -383.14,122.61 -408.05,392.29 -44.3,479.62 -84.5,955.04 -132.29,1432.26 -35.38,353.37 -16.41,363.72 -225.06,547.58 -1002.14,883.15 -1459.11,267.72 -1402.78,13.63 724.14,-70.26 1388.45,-717.51 1311.02,-1345.13 -139.3,-1128.98 -2241.1,-549.21 -2181.67,1378.33 3.4,110.17 36.95,211.26 -7.5,300.76 -46.18,93 -355.46,517.13 -599.59,368.83 -140.24,-85.18 -86.75,-416.73 -72.93,-596.19 25.98,-337.55 54.89,-925.02 127.3,-1232.31 193.07,-54.22 485.73,-102.35 535.56,-265.2 100.03,-326.98 -345.58,-213.85 -503.08,-179.06 23.56,-277.47 154.15,-936.77 -431.32,-900.55 -493.78,30.56 -222.53,711.21 -372.66,1038.17 -126.4,130.57 -335.71,100.65 -413.28,288.79 -44.29,107.41 -10.67,218.18 67.05,254.96 79.67,37.72 216.68,-2 312.83,2.12 -33.45,565.04 -280.29,1720.66 16.5,2124.45 250.64,341.01 943.33,216.25 1379.38,-335.7 55.64,-70.42 66.82,-131.3 160.12,-183.27 201.46,313.57 716.92,387.71 1186.64,262.86 420.36,-111.72 736.77,-347.81 984.46,-542.6 65.85,118.72 87.72,414.55 648.12,218.51 543.71,-190.18 -73.5,-1410.44 587.19,-2311.8 588.31,-370.98 374.16,437.1 763.05,212.81 493.06,-284.37 162.73,-1490.03 -509.25,-1105.99 -291.11,166.37 -371.15,521.75 -494.28,622.54zm-16651.14 4984.5c-656.07,330.63 94.61,-1831.69 -139.9,-2240.63 -83.32,-145.31 -271.01,-222.73 -490.16,-174.46 -425.76,93.78 -413.68,533.76 -445.14,964.03 -48.85,667.66 -413.72,1935.38 147.03,2306.78 402.11,266.37 1219.13,97.02 1403.35,-511.62 148.53,-707.96 -258.22,-453.43 -475.18,-344.1zm-453.36 -3970.27c-760.45,183.88 -601.41,1436.5 227.82,1211.32 274.23,-74.48 521.15,-371.45 475.93,-739.03 -38.29,-311.3 -341.45,-559.88 -703.75,-472.29zm3867.35 980.73c123.55,508.56 214.04,1454.66 233.89,1997.17 13.2,360.2 -54.48,718.93 74.27,1043.18 106.36,267.87 389.49,595.06 564.85,166.09 259.71,-635.36 758.23,-3146.29 1036.9,-3459.52 9.39,200.22 -29.64,480.29 -43.67,686.93 -65.64,967.82 -198.24,2597.36 929.66,2816.42 362.77,70.46 1168.1,12.02 1057.46,-407.97 -272.78,-140.9 -1050.59,87.76 -1100.74,-1749.2 -25.5,-933.58 92.11,-1755.13 181.95,-2668.47 81.88,-832.39 -432.97,-676.44 -664.45,-469.76 -228.63,204.14 -429.08,531.19 -574.42,864.19 -199.88,457.9 -542.69,1454.46 -682.57,1995.67 -9.7,37.54 -8.81,45.96 -22.37,76.89l-32.09 55.46c-2.96,4.8 -8.31,12.64 -13.12,18.47 -64.1,-587.8 -83.49,-1185.54 -163.05,-1779.12 -83.32,-621.72 -169.95,-1090.36 -622.04,-1308.23 -1003.42,-483.55 -3392.38,757.07 -3017.29,2521.07 215.18,1012.03 1516.89,1159.32 1497.36,357.74 -13.15,-539.76 -845.14,-283.88 -682.52,-1235.24 153.59,-898.47 1263.38,-1459.96 1479.96,-623.51 186.71,721.05 -359.35,2485.8 -598.54,3217.97 -161.88,495.53 -570.31,1181.81 -1075.47,1446.7 -112.58,59.03 -263.11,99.13 -231.44,254.89 36.51,179.56 620.71,360.57 840.39,374.27 535.23,33.4 783.73,-550.41 930.92,-1016.44 320.98,-1016.45 473.21,-2098.86 696.17,-3175.65zm5660.63 1452.35c-146.97,-255.33 -11.61,-1116.92 20.2,-1469.93 22.67,-251.77 119.67,-559.9 -160.99,-597.69 -387.03,-52.12 -460.24,157.22 -546.76,303.8 -118.52,-38.21 -186.6,-250.4 -684.33,-85.43 -653.19,216.5 -1036.78,798.91 -1122.78,1553.45 -61.82,542.4 143.08,1097.58 543.63,1235.87 657.66,227.06 1000.16,-361.19 1159.31,-512.85 130.97,259.64 362.18,354.13 717.24,234.5 258.4,-87.04 481.58,-337.23 595.63,-488.7 158.68,45.63 300.79,279.39 850.64,222.28 767.43,-79.69 1717.46,-841.03 672.2,-1664.53 -195.65,-154.14 -449.92,-301.54 -594.92,-470.59 -276.28,-322.11 334.15,-611.38 387.61,-314 23.32,129.68 -141.45,275.9 -17,389.37 112.74,102.82 320.8,7.07 386.72,-57.12 224.92,-219 70.2,-616.92 -146.03,-729.78 -423.27,-220.95 -1248.19,1.65 -1381.17,590.82 -75.46,334.35 116.81,602.09 275.7,738.26 196.67,168.53 437.03,338.02 591.9,499.96 493.32,515.88 -606.91,680.13 -586.21,253.75 7.22,-148.45 140.16,-276.67 46.96,-458.66 -50.01,-97.68 -243.43,-181.75 -359.51,-121.66 -90.35,46.76 -143.19,235.25 -184.08,360.85 -87.46,268.62 -155.83,648.53 -463.96,588.03zm-1114.75 -1453.46c-486.44,128.52 -834.36,1722.88 -217.93,1737.39 387.84,9.1 430.33,-469 483.17,-814.51 41.87,-273.59 147.32,-1031.88 -265.24,-922.88zm6139.38 -410.94c504.16,-0.98 951.74,-824.22 717.04,-1067.69 -143.13,-148.48 -408.47,-1.22 -553.63,297.13 -100.47,206.49 -198.15,517.16 -163.41,770.56z"/>
    <path id="_1_1" class="fil4" d="M20655.34 12273.8c19.69,-296.7 15.41,-477.26 -325.48,-461.09 -289.55,13.73 -383.14,122.61 -408.05,392.29 -44.3,479.62 -84.5,955.04 -132.29,1432.26 -35.38,353.37 -16.41,363.72 -225.06,547.58 -1002.14,883.15 -1459.11,267.72 -1402.78,13.63 724.14,-70.26 1388.45,-717.51 1311.02,-1345.13 -139.3,-1128.98 -2241.1,-549.21 -2181.67,1378.33 3.4,110.17 36.95,211.26 -7.5,300.76 -46.18,93 -355.46,517.13 -599.59,368.83 -140.24,-85.18 -86.75,-416.73 -72.93,-596.19 25.98,-337.55 54.89,-925.02 127.3,-1232.31 193.07,-54.22 485.73,-102.35 535.56,-265.2 100.03,-326.98 -345.58,-213.85 -503.08,-179.06 23.56,-277.47 154.15,-936.77 -431.32,-900.55 -493.78,30.56 -222.53,711.21 -372.66,1038.17 -126.4,130.57 -335.71,100.65 -413.28,288.79 -44.29,107.41 -10.67,218.18 67.05,254.96 79.67,37.72 216.68,-2 312.83,2.12 -33.45,565.04 -280.29,1720.66 16.5,2124.45 250.64,341.01 943.33,216.25 1379.38,-335.7 55.64,-70.42 66.82,-131.3 160.12,-183.27 201.46,313.57 716.92,387.71 1186.64,262.86 420.36,-111.72 736.77,-347.81 984.46,-542.6 65.85,118.72 87.72,414.55 648.12,218.51 543.71,-190.18 -73.5,-1410.44 587.19,-2311.8 588.31,-370.98 374.16,437.1 763.05,212.81 493.06,-284.37 162.73,-1490.03 -509.25,-1105.99 -291.11,166.37 -371.15,521.75 -494.28,622.54zm-16651.14 4984.5c-656.07,330.63 94.61,-1831.69 -139.9,-2240.63 -83.32,-145.31 -271.01,-222.73 -490.16,-174.46 -425.76,93.78 -413.68,533.76 -445.14,964.03 -48.85,667.66 -413.72,1935.38 147.03,2306.78 402.11,266.37 1219.13,97.02 1403.35,-511.62 148.53,-707.96 -258.22,-453.43 -475.18,-344.1zm-453.36 -3970.27c-760.45,183.88 -601.41,1436.5 227.82,1211.32 274.23,-74.48 521.15,-371.45 475.93,-739.03 -38.29,-311.3 -341.45,-559.88 -703.75,-472.29zm3867.35 980.73c123.55,508.56 214.04,1454.66 233.89,1997.17 13.2,360.2 -54.48,718.93 74.27,1043.18 106.36,267.87 389.49,595.06 564.85,166.09 259.71,-635.36 758.23,-3146.29 1036.9,-3459.52 9.39,200.22 -29.64,480.29 -43.67,686.93 -65.64,967.82 -198.24,2597.36 929.66,2816.42 362.77,70.46 1168.1,12.02 1057.46,-407.97 -272.78,-140.9 -1050.59,87.76 -1100.74,-1749.2 -25.5,-933.58 92.11,-1755.13 181.95,-2668.47 81.88,-832.39 -432.97,-676.44 -664.45,-469.76 -228.63,204.14 -429.08,531.19 -574.42,864.19 -199.88,457.9 -542.69,1454.46 -682.57,1995.67 -9.7,37.54 -8.81,45.96 -22.37,76.89l-32.09 55.46c-2.96,4.8 -8.31,12.64 -13.12,18.47 -64.1,-587.8 -83.49,-1185.54 -163.05,-1779.12 -83.32,-621.72 -169.95,-1090.36 -622.04,-1308.23 -1003.42,-483.55 -3392.38,757.07 -3017.29,2521.07 215.18,1012.03 1516.89,1159.32 1497.36,357.74 -13.15,-539.76 -845.14,-283.88 -682.52,-1235.24 153.59,-898.47 1263.38,-1459.96 1479.96,-623.51 186.71,721.05 -359.35,2485.8 -598.54,3217.97 -161.88,495.53 -570.31,1181.81 -1075.47,1446.7 -112.58,59.03 -263.11,99.13 -231.44,254.89 36.51,179.56 620.71,360.57 840.39,374.27 535.23,33.4 783.73,-550.41 930.92,-1016.44 320.98,-1016.45 473.21,-2098.86 696.17,-3175.65zm5660.63 1452.35c-146.97,-255.33 -11.61,-1116.92 20.2,-1469.93 22.67,-251.77 119.67,-559.9 -160.99,-597.69 -387.03,-52.12 -460.24,157.22 -546.76,303.8 -118.52,-38.21 -186.6,-250.4 -684.33,-85.43 -653.19,216.5 -1036.78,798.91 -1122.78,1553.45 -61.82,542.4 143.08,1097.58 543.63,1235.87 657.66,227.06 1000.16,-361.19 1159.31,-512.85 130.97,259.64 362.18,354.13 717.24,234.5 258.4,-87.04 481.58,-337.23 595.63,-488.7 158.68,45.63 300.79,279.39 850.64,222.28 767.43,-79.69 1717.46,-841.03 672.2,-1664.53 -195.65,-154.14 -449.92,-301.54 -594.92,-470.59 -276.28,-322.11 334.15,-611.38 387.61,-314 23.32,129.68 -141.45,275.9 -17,389.37 112.74,102.82 320.8,7.07 386.72,-57.12 224.92,-219 70.2,-616.92 -146.03,-729.78 -423.27,-220.95 -1248.19,1.65 -1381.17,590.82 -75.46,334.35 116.81,602.09 275.7,738.26 196.67,168.53 437.03,338.02 591.9,499.96 493.32,515.88 -606.91,680.13 -586.21,253.75 7.22,-148.45 140.16,-276.67 46.96,-458.66 -50.01,-97.68 -243.43,-181.75 -359.51,-121.66 -90.35,46.76 -143.19,235.25 -184.08,360.85 -87.46,268.62 -155.83,648.53 -463.96,588.03zm-1114.75 -1453.46c-486.44,128.52 -834.36,1722.88 -217.93,1737.39 387.84,9.1 430.33,-469 483.17,-814.51 41.87,-273.59 147.32,-1031.88 -265.24,-922.88zm6139.38 -410.94c504.16,-0.98 951.74,-824.22 717.04,-1067.69 -143.13,-148.48 -408.47,-1.22 -553.63,297.13 -100.47,206.49 -198.15,517.16 -163.41,770.56z"/>
   </g>
   <g>
    <g>
     <path class="fil4" d="M8153.45 8228.81c0,0 -58.52,-132.92 90.39,-249.91 148.91,-116.99 533.03,-324.7 552.31,-551.21 18.81,-220.47 -46.03,-346.37 -244.5,-458.74 -193.29,-109.42 -621.71,-333.04 -265.45,-512.32 -84.72,16.96 -229.18,80.85 -229.38,235.88 -0.48,342.23 531.35,272.72 483.04,735.63 -28.09,269.4 -306.11,374.67 -415.11,501.83 -108.99,127.16 -39.36,214.95 28.7,298.84z"/>
     <path class="fil4" d="M8344.05 7698.19c256.23,-648.29 -1074.32,-597.97 -581.9,-1255.63 48,-64.11 123.93,-160.16 148.01,-278.6 34.14,-167.97 -9.05,-366.79 -152.31,-460.3 321.67,332.09 -308.94,698.44 -358.81,1015.55 -24.01,152.63 20.48,318.15 169.41,419.12 265.23,179.76 349.05,173.7 512.77,227.63 163.72,53.93 261.28,115.76 262.83,332.23z"/>
     <path class="fil4" d="M8789.3 8411.05c0,0 -403.8,-13.02 -722.29,47.44 -318.48,60.47 -411.27,123.86 -454.19,156.91 -42.92,33.05 -30.31,96.66 91.11,151.73 121.42,55.07 470.35,163.44 1011.14,165.07 540.78,1.63 882.88,-32.69 1081.16,-87.76 198.27,-55.06 273,-103.98 301.25,-128.53 28.24,-24.54 34.42,-72.43 -95.79,-126.48 -130.21,-54.06 -565.01,-157.22 -945.74,-147.4 104.4,9.82 547.77,81.04 695.16,114.22 147.39,33.18 292.33,95.84 304.61,130.21 12.27,34.36 -11.63,65.48 -44.6,69.3 -32.98,3.82 -51.66,0 -51.66,0 0,0 -659.88,-207.94 -1254.94,-189.72 -595.05,18.22 -881,106.64 -999.92,177.55 -52.58,-32.02 -69.74,-81.19 -7.98,-122.35 61.76,-41.17 133.46,-152.62 1092.68,-210.19z"/>
     <path class="fil4" d="M7455.05 8637.8c3.26,-167.69 308.94,-259.86 434.82,-292.4 307.52,-79.5 659.01,-104.92 975.97,-104.92 316.97,0 668.47,25.41 975.98,104.92 115.9,29.97 299.13,81.52 379.99,176.95 58.5,69.03 59.82,152.92 66.22,238.76 32.72,438.5 -103.28,918 -399.47,1248.8 -408.03,455.71 -1059.1,574.26 -1608.24,319 -278.13,-129.28 -502,-343.09 -647.04,-613.1 -177.64,-330.69 -219.78,-708.88 -178.23,-1078.01zm2741.74 178.37c-42.58,29.46 -89.47,57.84 -136.35,77.37 -436.26,181.73 -1462.63,165.22 -1934.33,88.13 -108.59,-17.75 -218.66,-43.91 -323.33,-77.96 -41.92,-13.64 -146.22,-48.96 -177.66,-79.56 -28.2,-27.43 -44.45,-76.39 -47.55,-115.29l6.7 -49.39 18.49 43.12c31.8,74.17 99.56,108.63 172.21,134.69 63.51,22.77 131.7,38.64 197.67,52.48 99.98,20.97 201.29,37.81 302.16,53.92 228.75,36.54 461.12,44.97 692.38,37.15 194.76,-6.59 386.96,-25.54 580.81,-43.37 144.72,-13.32 299.45,-48.07 435.26,-98.99 40.42,-15.15 200.93,-79.96 205.47,-131.9 6.39,-73.06 -25.36,-122.57 -84.92,-162.46 -77.55,-51.95 -195.84,-84.09 -285.67,-107.31 -299.48,-77.41 -643.62,-101.68 -952.29,-101.69 -308.66,0 -652.81,24.26 -952.28,101.69 -89.15,23.05 -261.09,68.06 -326.63,137.86 -44.56,47.45 -42.59,110.72 -48.02,171.6 -34.89,390.68 63.68,799.66 302.94,1114.15 249.17,327.52 611.2,501.49 1023.37,501.49 404.28,0 761.38,-168.15 1011.01,-485.56 234.02,-297.56 339.84,-684.49 320.56,-1060.17z"/>
    </g>
   </g>
   <path class="fil3" d="M7239.64 18764.57c116.76,25.17 385.09,41.19 466.04,53.04 178.08,26.07 332.55,58.85 493.22,108.77 185.31,57.58 467.46,192.91 611.74,306.43 297.48,234.05 284.5,102.21 745.43,-119.68 1380.13,-658.8 7079.04,-2164.39 8822.86,-2619.46 297.59,-77.66 1188.07,-294.2 1411.22,-370.48 100.24,-40.69 238.18,-230.81 -9.77,-212.21 -147.96,0.2 -3011.65,592.29 -3227.11,636.61 -2598.24,534.5 -5254.25,1145.02 -7835.1,1796.11 -206.12,52 -1227.87,295.28 -1480.82,382.41 -8.61,2.97 -13.99,11 -13.45,20.09 0.54,9.09 6.84,16.45 15.74,18.37z"/>
  </g>
 </g>
</svg>
